<svg width="60" height="60" viewBox="0 0 60 60" fill="none" xmlns="http://www.w3.org/2000/svg">
<path d="M43.125 1.875H13.125M37.5 13.125H18.75M3.75 31.875H11.25M7.5 28.125V35.625M37.5 48.75C37.5 51.2364 36.5123 53.621 34.7541 55.3791C32.996 57.1373 30.6114 58.125 28.125 58.125C25.6386 58.125 23.254 57.1373 21.4959 55.3791C19.7377 53.621 18.75 51.2364 18.75 48.75V1.875H37.5V48.75ZM52.5 16.875C53.4946 16.875 54.4484 16.4799 55.1516 15.7767C55.8549 15.0734 56.25 14.1196 56.25 13.125C56.25 12.1304 55.8549 11.1766 55.1516 10.4733C54.4484 9.77009 53.4946 9.375 52.5 9.375C51.5054 9.375 50.5516 9.77009 49.8484 10.4733C49.1451 11.1766 48.75 12.1304 48.75 13.125C48.75 14.1196 49.1451 15.0734 49.8484 15.7767C50.5516 16.4799 51.5054 16.875 52.5 16.875Z" stroke="#28406D" stroke-width="2.5" stroke-linecap="round" stroke-linejoin="round"/>
<path d="M30.2746 22.2254C30.4504 22.4012 30.6889 22.5 30.9375 22.5C31.1861 22.5 31.4246 22.4012 31.6004 22.2254C31.7762 22.0496 31.875 21.8111 31.875 21.5625C31.875 21.3139 31.7762 21.0754 31.6004 20.8996C31.4246 20.7238 31.1861 20.625 30.9375 20.625C30.6889 20.625 30.4504 20.7238 30.2746 20.8996C30.0988 21.0754 30 21.3139 30 21.5625C30 21.8111 30.0988 22.0496 30.2746 22.2254Z" stroke="#28406D" stroke-width="2.5"/>
<path d="M24.6496 33.4754C24.8254 33.6512 25.0639 33.75 25.3125 33.75C25.5611 33.75 25.7996 33.6512 25.9754 33.4754C26.1512 33.2996 26.25 33.0611 26.25 32.8125C26.25 32.5639 26.1512 32.3254 25.9754 32.1496C25.7996 31.9738 25.5611 31.875 25.3125 31.875C25.0639 31.875 24.8254 31.9738 24.6496 32.1496C24.4738 32.3254 24.375 32.5639 24.375 32.8125C24.375 33.0611 24.4738 33.2996 24.6496 33.4754Z" stroke="#28406D" stroke-width="2.5"/>
<path d="M28.3996 44.7254C28.5754 44.9012 28.8139 45 29.0625 45C29.3111 45 29.5496 44.9012 29.7254 44.7254C29.9012 44.5496 30 44.3111 30 44.0625C30 43.8139 29.9012 43.5754 29.7254 43.3996C29.5496 43.2238 29.3111 43.125 29.0625 43.125C28.8139 43.125 28.5754 43.2238 28.3996 43.3996C28.2238 43.5754 28.125 43.8139 28.125 44.0625C28.125 44.3111 28.2238 44.5496 28.3996 44.7254Z" stroke="#28406D" stroke-width="2.5"/>
</svg>
