<svg width="60" height="60" viewBox="0 0 60 60" fill="none" xmlns="http://www.w3.org/2000/svg">
<path d="M50.6273 52.4993C50.3811 52.4997 50.1372 52.4513 49.9097 52.357C49.6822 52.2626 49.4757 52.1242 49.3019 51.9496L8.05195 10.6996C7.71516 10.3452 7.53018 9.87313 7.53644 9.3842C7.5427 8.89527 7.7397 8.42813 8.08546 8.08238C8.43121 7.73662 8.89835 7.53962 9.38728 7.53336C9.87621 7.5271 10.3482 7.71208 10.7027 8.04887L51.9527 49.2989C52.2148 49.5611 52.3932 49.8951 52.4655 50.2587C52.5378 50.6223 52.5006 50.9992 52.3588 51.3417C52.217 51.6842 51.9768 51.9769 51.6686 52.183C51.3604 52.389 50.9981 52.4991 50.6273 52.4993ZM29.9625 44.9993C25.1004 44.9993 20.4117 43.5602 16.0266 40.7219C12.034 38.1438 8.43984 34.4512 5.63202 30.0579V30.0485C7.96874 26.7004 10.5281 23.8692 13.2773 21.5864C13.3022 21.5656 13.3225 21.5399 13.3369 21.5108C13.3513 21.4818 13.3596 21.4501 13.3611 21.4177C13.3627 21.3853 13.3575 21.353 13.3459 21.3227C13.3343 21.2924 13.3165 21.2649 13.2937 21.2418L10.9594 18.911C10.9179 18.8692 10.8622 18.8445 10.8033 18.8419C10.7445 18.8393 10.6868 18.8589 10.6418 18.8969C7.72148 21.3579 5.01093 24.3766 2.54648 27.911C2.12248 28.5195 1.88896 29.2404 1.87561 29.982C1.86225 30.7236 2.06966 31.4524 2.47148 32.0758C5.5664 36.9192 9.5496 40.9985 13.9887 43.8707C18.9867 47.1086 24.3656 48.7493 29.9625 48.7493C32.9835 48.7399 35.9832 48.2421 38.8453 47.275C38.8831 47.2622 38.9169 47.24 38.9437 47.2105C38.9705 47.1809 38.9893 47.145 38.9983 47.1062C39.0073 47.0674 39.0063 47.0269 38.9953 46.9885C38.9843 46.9502 38.9638 46.9153 38.9355 46.8871L36.4066 44.3582C36.3484 44.3015 36.2764 44.2608 36.1977 44.2402C36.119 44.2197 36.0364 44.22 35.9578 44.2411C33.9993 44.7454 31.9849 45.0001 29.9625 44.9993ZM57.5227 27.9602C54.4219 23.1649 50.3988 19.0914 45.8895 16.1793C40.9008 12.9543 35.393 11.2493 29.9625 11.2493C26.9735 11.2545 24.0066 11.7627 21.1863 12.7528C21.1487 12.7659 21.1151 12.7883 21.0886 12.8179C21.0621 12.8476 21.0436 12.8835 21.0348 12.9223C21.026 12.9611 21.0272 13.0015 21.0383 13.0397C21.0495 13.0779 21.0702 13.1127 21.0984 13.1407L23.6238 15.6661C23.6826 15.7238 23.7556 15.7651 23.8354 15.7857C23.9153 15.8063 23.9991 15.8054 24.0785 15.7832C25.9968 15.2643 27.9752 15.0007 29.9625 14.9993C34.7309 14.9993 39.4055 16.4559 43.8551 19.3352C47.9226 21.9602 51.559 25.6493 54.3738 29.9993C54.3759 30.0019 54.377 30.0052 54.377 30.0086C54.377 30.012 54.3759 30.0153 54.3738 30.018C52.3306 33.2347 49.795 36.1108 46.8598 38.5411C46.8346 38.5618 46.8141 38.5875 46.7994 38.6166C46.7848 38.6457 46.7764 38.6775 46.7747 38.71C46.7731 38.7426 46.7782 38.7751 46.7898 38.8055C46.8015 38.8359 46.8193 38.8636 46.8422 38.8868L49.1742 41.2176C49.2155 41.2593 49.2709 41.284 49.3295 41.2868C49.388 41.2896 49.4455 41.2704 49.4906 41.2329C52.6242 38.5944 55.3367 35.493 57.5344 32.036C57.9228 31.4268 58.1282 30.7189 58.1261 29.9964C58.1241 29.2739 57.9146 28.5672 57.5227 27.9602Z" fill="#28406D"/>
<path d="M30.0024 18.75C29.1597 18.7497 28.3197 18.844 27.4981 19.0313C27.4566 19.0399 27.4182 19.0596 27.387 19.0883C27.3558 19.117 27.333 19.1536 27.321 19.1942C27.309 19.2349 27.3082 19.278 27.3187 19.3191C27.3293 19.3601 27.3508 19.3975 27.3809 19.4273L40.575 32.618C40.6048 32.6481 40.6423 32.6696 40.6833 32.6801C40.7244 32.6907 40.7675 32.6899 40.8081 32.6779C40.8488 32.6659 40.8854 32.643 40.9141 32.6118C40.9428 32.5807 40.9625 32.5423 40.9711 32.5008C41.3468 30.8532 41.3464 29.1421 40.9701 27.4947C40.5937 25.8472 39.8511 24.3057 38.7973 22.9846C37.7435 21.6635 36.4056 20.5968 34.883 19.8637C33.3604 19.1306 31.6923 18.75 30.0024 18.75ZM19.4297 27.382C19.3999 27.3519 19.3625 27.3304 19.3214 27.3199C19.2804 27.3093 19.2373 27.3101 19.1966 27.3221C19.156 27.3341 19.1193 27.357 19.0906 27.3882C19.0619 27.4193 19.0422 27.4577 19.0336 27.4992C18.6086 29.3559 18.662 31.29 19.1887 33.1204C19.7154 34.9508 20.6982 36.6175 22.045 37.9644C23.3919 39.3112 25.0586 40.294 26.889 40.8207C28.7194 41.3474 30.6535 41.4008 32.5102 40.9758C32.5517 40.9672 32.5901 40.9475 32.6213 40.9188C32.6524 40.8901 32.6753 40.8534 32.6873 40.8128C32.6993 40.7722 32.7001 40.729 32.6895 40.688C32.679 40.6469 32.6575 40.6095 32.6274 40.5797L19.4297 27.382Z" fill="#28406D"/>
</svg>
