<svg width="60" height="60" viewBox="0 0 60 60" fill="none" xmlns="http://www.w3.org/2000/svg">
<path d="M8 56.5H52.1176M41.5609 21.5C44.3112 24.3945 45.8241 28.1192 45.8151 31.9737C45.8151 40.6858 38.2647 47.75 28.9496 47.75C25.9661 47.7459 23.0374 47.0077 20.4636 45.6111C17.8899 44.2145 15.7635 42.2097 14.3025 39.8021M8 39H26.9076M28.2847 26.0587L23.7563 30.25M42.062 13.4296L48.8529 7.14417M45.459 4L52.25 10.2854M23.7563 47.75V56.5M36.3613 47.75V56.5M38.6649 10.2854L25.083 22.8592L31.8739 29.1446L45.4559 16.5737L38.6649 10.2854Z" stroke="#28406D" stroke-width="2.5" stroke-linecap="round" stroke-linejoin="round"/>
</svg>
