<svg width="60" height="60" viewBox="0 0 60 60" fill="none" xmlns="http://www.w3.org/2000/svg">
<path d="M46.875 37.499C46.875 47.8549 40.3559 54.374 30 54.374C19.6441 54.374 13.125 47.8549 13.125 37.499C13.125 26.3861 25.2223 11.3838 28.9324 7.04435C29.0644 6.89017 29.2283 6.7664 29.4127 6.68154C29.597 6.59667 29.7976 6.55273 30.0006 6.55273C30.2036 6.55273 30.4041 6.59667 30.5885 6.68154C30.7729 6.7664 30.9367 6.89017 31.0687 7.04435C34.7777 11.3838 46.875 26.3861 46.875 37.499Z" stroke="#28406D" stroke-width="2.5" stroke-miterlimit="10"/>
<path d="M40.3125 38.4375C40.3125 40.6753 39.4236 42.8214 37.8412 44.4037C36.2589 45.9861 34.1128 46.875 31.875 46.875" stroke="#28406D" stroke-width="2.5" stroke-linecap="round" stroke-linejoin="round"/>
</svg>
