<svg width="60" height="60" viewBox="0 0 60 60" fill="none" xmlns="http://www.w3.org/2000/svg">
<path d="M49.6875 14.0625C48.575 14.0625 47.4874 14.3924 46.5624 15.0105C45.6374 15.6286 44.9164 16.5071 44.4907 17.5349C44.0649 18.5627 43.9535 19.6937 44.1706 20.7849C44.3876 21.876 44.9234 22.8783 45.71 23.665C46.4967 24.4516 47.499 24.9874 48.5901 25.2044C49.6813 25.4215 50.8123 25.3101 51.8401 24.8843C52.8679 24.4586 53.7464 23.7376 54.3645 22.8126C54.9826 21.8876 55.3125 20.8 55.3125 19.6875C55.3125 18.1957 54.7199 16.7649 53.665 15.71C52.6101 14.6551 51.1793 14.0625 49.6875 14.0625ZM49.6875 23.4375C48.9458 23.4375 48.2208 23.2176 47.6041 22.8055C46.9874 22.3935 46.5068 21.8078 46.2229 21.1226C45.9391 20.4373 45.8649 19.6833 46.0096 18.9559C46.1543 18.2285 46.5114 17.5603 47.0359 17.0359C47.5603 16.5114 48.2285 16.1542 48.9559 16.0096C49.6833 15.8649 50.4373 15.9391 51.1226 16.223C51.8078 16.5068 52.3935 16.9874 52.8055 17.6041C53.2176 18.2208 53.4375 18.9458 53.4375 19.6875C53.4375 20.6821 53.0424 21.6359 52.3391 22.3391C51.6359 23.0424 50.6821 23.4375 49.6875 23.4375ZM29.0625 36.6305V20.625C29.0625 20.3764 28.9637 20.1379 28.7879 19.9621C28.6121 19.7863 28.3736 19.6875 28.125 19.6875C27.8764 19.6875 27.6379 19.7863 27.4621 19.9621C27.2863 20.1379 27.1875 20.3764 27.1875 20.625V36.6305C25.5454 36.8675 24.054 37.7177 23.0135 39.01C21.973 40.3023 21.4605 41.9407 21.5793 43.5956C21.6982 45.2505 22.4394 46.7989 23.6539 47.9293C24.8683 49.0597 26.4659 49.6882 28.125 49.6882C29.7841 49.6882 31.3817 49.0597 32.5961 47.9293C33.8106 46.7989 34.5518 45.2505 34.6707 43.5956C34.7895 41.9407 34.277 40.3023 33.2365 39.01C32.196 37.7177 30.7046 36.8675 29.0625 36.6305ZM28.125 47.8125C27.1979 47.8125 26.2916 47.5376 25.5208 47.0225C24.7499 46.5074 24.1491 45.7754 23.7943 44.9188C23.4395 44.0623 23.3467 43.1198 23.5276 42.2105C23.7084 41.3012 24.1549 40.466 24.8104 39.8104C25.466 39.1549 26.3012 38.7084 27.2105 38.5276C28.1198 38.3467 29.0623 38.4395 29.9188 38.7943C30.7754 39.1491 31.5074 39.7499 32.0225 40.5208C32.5376 41.2916 32.8125 42.1979 32.8125 43.125C32.8125 44.3682 32.3186 45.5605 31.4396 46.4396C30.5605 47.3186 29.3682 47.8125 28.125 47.8125ZM36.5625 31.875V11.25C36.5625 9.01224 35.6736 6.86612 34.0912 5.28379C32.5089 3.70145 30.3628 2.8125 28.125 2.8125C25.8872 2.8125 23.7411 3.70145 22.1588 5.28379C20.5764 6.86612 19.6875 9.01224 19.6875 11.25V31.875C17.3263 33.6459 15.5822 36.1148 14.7022 38.932C13.8221 41.7492 13.8508 44.7719 14.7841 47.572C15.7175 50.372 17.5082 52.8073 19.9025 54.5331C22.2969 56.2589 25.1735 57.1875 28.125 57.1875C31.0765 57.1875 33.9531 56.2589 36.3475 54.5331C38.7418 52.8073 40.5325 50.372 41.4659 47.572C42.3992 44.7719 42.4279 41.7492 41.5478 38.932C40.6678 36.1148 38.9237 33.6459 36.5625 31.875ZM28.125 55.3125C25.53 55.3127 23.0028 54.4847 20.9111 52.9489C18.8194 51.4132 17.2724 49.2498 16.4955 46.7739C15.7186 44.298 15.7522 41.6387 16.5915 39.1833C17.4308 36.7278 19.0319 34.6043 21.1617 33.1219C21.2868 33.0346 21.3887 32.9181 21.4585 32.7825C21.5283 32.6469 21.564 32.4963 21.5625 32.3438V11.25C21.5625 9.50952 22.2539 7.84032 23.4846 6.60961C24.7153 5.3789 26.3845 4.6875 28.125 4.6875C29.8655 4.6875 31.5347 5.3789 32.7654 6.60961C33.9961 7.84032 34.6875 9.50952 34.6875 11.25V32.3438C34.6875 32.4947 34.7239 32.6434 34.7937 32.7772C34.8635 32.9111 34.9645 33.0261 35.0883 33.1125C37.2222 34.5935 38.8272 36.7175 39.6691 39.1748C40.511 41.6321 40.5458 44.2941 39.7684 46.7725C38.991 49.251 37.4421 51.4162 35.3476 52.9525C33.2531 54.4887 30.7225 55.3156 28.125 55.3125Z" fill="#28406D"/>
</svg>
