<svg width="60" height="60" viewBox="0 0 60 60" fill="none" xmlns="http://www.w3.org/2000/svg">
<path d="M24.9125 3.6675C26.5875 3.325 28.2913 3.14375 30 3.125C31.729 3.1277 33.4536 3.29723 35.15 3.63125C35.0438 4.01639 34.981 4.41217 34.9625 4.81125C34.9625 6.23304 35.5271 7.59663 36.5323 8.60223C37.5374 9.60782 38.9007 10.1731 40.3225 10.1737C41.2322 10.1637 42.1243 9.92249 42.915 9.47268C43.7057 9.02287 44.369 8.37929 44.8425 7.6025C47.8412 9.59018 50.4103 12.1597 52.3975 15.1587C51.6207 15.6322 50.9771 16.2955 50.5273 17.0862C50.0775 17.8769 49.8363 18.7691 49.8262 19.6787C49.8272 21.1003 50.3927 22.4633 51.3982 23.4682C52.4038 24.473 53.7672 25.0375 55.1888 25.0375C55.5878 25.019 55.9836 24.9562 56.3688 24.85C56.7028 26.5464 56.8723 28.271 56.875 30C56.8563 31.7288 56.6688 33.4513 56.3187 35.1437C55.9487 35.0429 55.5721 34.9825 55.1888 34.9625C53.767 34.9625 52.4034 35.5271 51.3978 36.5323C50.3922 37.5374 49.8269 38.9007 49.8262 40.3225C49.8355 41.2223 50.0711 42.1054 50.5113 42.8902C50.9514 43.6751 51.582 44.3366 52.345 44.8138C50.3622 47.8015 47.8015 50.3622 44.8138 52.345C44.3365 51.5819 43.6748 50.9512 42.8897 50.511C42.1046 50.0708 41.2213 49.8353 40.3213 49.8262C38.8997 49.8272 37.5367 50.3927 36.5318 51.3982C35.527 52.4038 34.9625 53.7672 34.9625 55.1888C34.9825 55.5708 35.0433 55.9496 35.1437 56.3187C33.451 56.6692 31.7285 56.8554 30 56.875C28.2712 56.8563 26.5487 56.6688 24.8563 56.3187C24.9567 55.9496 25.0175 55.5708 25.0375 55.1888C25.0375 53.767 24.4729 52.4034 23.4677 51.3978C22.4626 50.3922 21.0993 49.8269 19.6775 49.8262C18.7777 49.8355 17.8946 50.0711 17.1098 50.5113C16.3249 50.9514 15.6634 51.582 15.1863 52.345C12.199 50.362 9.63873 47.8013 7.65625 44.8138C8.41915 44.3363 9.04962 43.6746 9.48957 42.8895C9.92953 42.1044 10.1648 41.2212 10.1737 40.3213C10.1728 38.8997 9.60734 37.5367 8.60178 36.5318C7.59623 35.527 6.23282 34.9625 4.81125 34.9625C4.42921 34.9825 4.05039 35.0433 3.68125 35.1437C3.33161 33.4509 3.14534 31.7284 3.125 30C3.14456 28.2715 3.33084 26.549 3.68125 24.8563C4.05039 24.9567 4.42921 25.0175 4.81125 25.0375C6.23304 25.0375 7.59663 24.4729 8.60223 23.4677C9.60782 22.4626 10.1731 21.0993 10.1737 19.6775C10.1562 17.8487 9.20625 16.1562 7.65625 15.1863C9.63886 12.1991 12.1991 9.63886 15.1863 7.65625C15.6637 8.41915 16.3254 9.04962 17.1105 9.48957C17.8956 9.92953 18.7788 10.1648 19.6787 10.1737C20.4798 10.1734 21.2705 9.99354 21.9929 9.64737C22.7153 9.30119 23.3509 8.79751 23.8529 8.17336C24.355 7.54921 24.7108 6.82046 24.8942 6.0407C25.0775 5.26094 25.0838 4.45 24.9125 3.6675Z" stroke="#28406D" stroke-width="2.5" stroke-linecap="round" stroke-linejoin="round"/>
<path d="M42.8132 19.8849L37.4407 25.2574C37.3567 25.3418 37.2567 25.4088 37.1467 25.4545C37.0366 25.5003 36.9187 25.5238 36.7995 25.5238C36.6803 25.5238 36.5623 25.5003 36.4523 25.4545C36.3423 25.4088 36.2423 25.3418 36.1582 25.2574L34.7307 23.8299C34.6463 23.7458 34.5793 23.6459 34.5336 23.5358C34.4879 23.4258 34.4644 23.3078 34.4644 23.1886C34.4644 23.0695 34.4879 22.9515 34.5336 22.8415C34.5793 22.7314 34.6463 22.6315 34.7307 22.5474L40.0857 17.1924C38.5146 16.2287 36.6652 15.8206 34.8344 16.0337C33.0036 16.2467 31.2973 17.0686 29.9895 18.3674C28.8976 19.4624 28.1366 20.8431 27.7936 22.351C27.4507 23.8589 27.5398 25.4329 28.0507 26.8924L17.0382 37.9049C15.6182 39.3249 15.5995 41.5936 16.997 42.9924C18.3945 44.3886 20.6632 44.3699 22.0845 42.9486L33.0945 31.9386C34.5544 32.4501 36.1289 32.5394 37.6373 32.1965C39.1456 31.8536 40.5267 31.0922 41.622 29.9999C42.928 28.6929 43.7559 26.9842 43.9722 25.1492C44.1886 23.3142 43.7808 21.4598 42.8145 19.8849" stroke="#28406D" stroke-width="2.5" stroke-linecap="round" stroke-linejoin="round"/>
</svg>
