<svg width="63" height="66" viewBox="0 0 63 66" fill="none" xmlns="http://www.w3.org/2000/svg">
<g filter="url(#filter0_d_2347_9859)">
<path d="M51.5 35.7425L52.0737 35.7025C54.8112 35.5025 56.9362 33.575 57.24 30.8463C57.51 28.425 57.75 24.895 57.75 20C57.75 15.105 57.51 11.575 57.24 9.15375C56.9362 6.425 54.815 4.4975 52.075 4.29875C48.4025 4.03125 42.03 3.75 31.5 3.75C20.97 3.75 14.5975 4.03125 10.925 4.29875C8.18625 4.4975 6.0625 6.42375 5.76 9.15375C5.49 11.575 5.25 15.105 5.25 20C5.25 24.895 5.49 28.425 5.76 30.8463C6.06375 33.575 8.18875 35.5038 10.9262 35.7025L11.5 35.7425" stroke="#28406D" stroke-width="2.5" stroke-linecap="round" stroke-linejoin="round"/>
<path d="M16.4137 56.25C16.4137 56.25 15.7013 53.7775 14.8263 50M46.5863 56.25C46.5863 56.25 47.2988 53.7775 48.1738 50M31.5 42.5C41.7087 42.5 47.9875 42.5925 50.7013 42.645C51.66 42.6625 52.4937 43.25 52.6225 44.2C52.695 44.7313 52.75 45.41 52.75 46.25C52.75 47.09 52.695 47.7675 52.6225 48.2987C52.4937 49.2487 51.6588 49.8375 50.7 49.855C47.9888 49.9075 41.7087 50 31.5 50C21.2913 50 15.0125 49.9075 12.2987 49.855C11.3412 49.8375 10.5062 49.25 10.3762 48.3C10.305 47.7687 10.25 47.09 10.25 46.25C10.25 45.41 10.305 44.7325 10.3762 44.2013C10.5062 43.2513 11.3413 42.6625 12.3 42.645C15.0113 42.5925 21.2913 42.5 31.5 42.5ZM31.5 42.5V36.25M39 21.25C39 23.2391 38.2098 25.1468 36.8033 26.5533C35.3968 27.9598 33.4891 28.75 31.5 28.75C29.5109 28.75 27.6032 27.9598 26.1967 26.5533C24.7902 25.1468 24 23.2391 24 21.25C24 19.2609 24.7902 17.3532 26.1967 15.9467C27.6032 14.5402 29.5109 13.75 31.5 13.75C33.4891 13.75 35.3968 14.5402 36.8033 15.9467C38.2098 17.3532 39 19.2609 39 21.25Z" stroke="#28406D" stroke-width="2.5" stroke-linecap="round" stroke-linejoin="round"/>
<path d="M44 35.9475C43.756 34.8974 43.4733 33.8567 43.1525 32.8275C42.5762 30.9837 41.1075 29.6187 39.2025 29.3025C37.48 29.0137 34.9538 28.75 31.5 28.75C28.0462 28.75 25.5188 29.015 23.7988 29.3012C21.8913 29.6187 20.4238 30.9838 19.8463 32.8288C19.5763 33.6938 19.2812 34.7412 19 35.9475" stroke="#28406D" stroke-width="2.5" stroke-linecap="round" stroke-linejoin="round"/>
</g>
<defs>
<filter id="filter0_d_2347_9859" x="-2.5" y="0" width="68" height="68" filterUnits="userSpaceOnUse" color-interpolation-filters="sRGB">
<feFlood flood-opacity="0" result="BackgroundImageFix"/>
<feColorMatrix in="SourceAlpha" type="matrix" values="0 0 0 0 0 0 0 0 0 0 0 0 0 0 0 0 0 0 127 0" result="hardAlpha"/>
<feOffset dy="4"/>
<feGaussianBlur stdDeviation="2"/>
<feComposite in2="hardAlpha" operator="out"/>
<feColorMatrix type="matrix" values="0 0 0 0 0 0 0 0 0 0 0 0 0 0 0 0 0 0 0.25 0"/>
<feBlend mode="normal" in2="BackgroundImageFix" result="effect1_dropShadow_2347_9859"/>
<feBlend mode="normal" in="SourceGraphic" in2="effect1_dropShadow_2347_9859" result="shape"/>
</filter>
</defs>
</svg>
