<svg width="60" height="60" viewBox="0 0 60 60" fill="none" xmlns="http://www.w3.org/2000/svg">
<path fill-rule="evenodd" clip-rule="evenodd" d="M46.5482 19.3781C47.5891 20.5269 47.2706 22.2902 46.0011 23.1796L39.1668 27.9743C37.8987 28.8636 36.1649 28.5045 34.9122 27.5955C33.5021 26.569 31.8095 26.0027 30.0656 25.9739C28.3216 25.9453 26.6112 26.4547 25.1671 27.4328C23.8835 28.3011 22.1399 28.6027 20.9026 27.6713L14.2296 22.6521C12.9924 21.7207 12.7315 19.9462 13.8102 18.8338C15.9464 16.6308 18.5116 14.8892 21.3473 13.7167C24.1831 12.5442 27.2292 11.9656 30.2974 12.0168C33.3656 12.0679 36.3907 12.7477 39.1858 14.0141C41.9809 15.2804 44.4867 17.1051 46.5482 19.3781ZM44.2266 21.0011C42.4281 19.0897 40.2647 17.5581 37.8642 16.497C35.4638 15.4359 32.875 14.8666 30.2508 14.823C27.6266 14.7793 25.0203 15.262 22.5858 16.2427C20.1514 17.2234 17.9382 18.682 16.0771 20.5325L22.5832 25.4254C22.6431 25.4382 22.7047 25.441 22.7655 25.4338C22.9858 25.4142 23.2944 25.3132 23.5932 25.1112C25.5756 23.7684 27.9336 23.0905 30.3265 23.1754C30.3798 23.0632 30.4495 22.9575 30.5355 22.8583L34.3875 18.4284C34.6316 18.1475 34.9772 17.975 35.3484 17.949C35.7196 17.923 36.086 18.0454 36.3669 18.2895C36.6477 18.5336 36.8202 18.8792 36.8462 19.2504C36.8723 19.6216 36.7498 19.9879 36.5057 20.2688L33.4827 23.7449C34.5847 24.1095 35.6234 24.6428 36.5618 25.3258C36.8536 25.5377 37.158 25.6485 37.3783 25.6765C37.4849 25.6906 37.541 25.6807 37.5606 25.6751L44.2266 21.0011ZM37.5732 25.6709L37.5606 25.6751C37.5662 25.6704 37.5714 25.669 37.5732 25.6709Z" fill="#28406D"/>
<path fill-rule="evenodd" clip-rule="evenodd" d="M47.0653 55.5C48.4996 55.5001 49.8795 54.9509 50.9215 53.9652C51.9634 52.9796 52.5884 51.6324 52.668 50.2003L54.8507 10.9225C54.8931 10.1606 54.7796 9.39803 54.5172 8.68147C54.2547 7.96491 53.8489 7.30941 53.3245 6.75505C52.8 6.20069 52.1681 5.75912 51.4672 5.45736C50.7663 5.15559 50.0112 4.99997 49.2481 5H10.6099C9.84695 5.00016 9.09201 5.15592 8.39127 5.45777C7.69053 5.75962 7.05871 6.20122 6.53444 6.75556C6.01017 7.30989 5.60446 7.96533 5.34211 8.6818C5.07977 9.39827 4.9663 10.1607 5.00865 10.9225L7.18997 50.2003C7.26957 51.6324 7.89456 52.9796 8.93653 53.9652C9.97851 54.9509 11.3584 55.5001 12.7927 55.5H47.0653ZM12.7927 52.6944H47.0653C47.7827 52.6945 48.4728 52.4197 48.9939 51.9266C49.5149 51.4334 49.8272 50.7595 49.8667 50.0432L52.0494 10.7654C52.0704 10.3846 52.0135 10.0034 51.8822 9.64532C51.7509 9.2872 51.5479 8.95962 51.2857 8.6826C51.0235 8.40557 50.7076 8.18492 50.3573 8.03412C50.0069 7.88332 49.6295 7.80555 49.2481 7.80556H10.6099C10.2285 7.80555 9.85109 7.88332 9.50073 8.03412C9.15038 8.18492 8.83445 8.40557 8.57226 8.6826C8.31007 8.95962 8.10712 9.2872 7.97582 9.64532C7.84452 10.0034 7.78761 10.3846 7.80859 10.7654L9.99131 50.0432C10.0308 50.7595 10.3431 51.4334 10.8641 51.9266C11.3852 52.4197 12.0753 52.6945 12.7927 52.6944Z" fill="#28406D"/>
</svg>
