<svg width="60" height="60" viewBox="0 0 60 60" fill="none" xmlns="http://www.w3.org/2000/svg">
<path d="M35.2382 10.2167C36.0176 8.03241 36.8392 5.86343 37.7025 3.71094C41.5425 6.44522 44.971 10.4824 46.2525 16.2252C46.3767 16.7794 46.3649 17.3555 46.2178 17.9041C46.0708 18.4527 45.793 18.9575 45.4082 19.3752C41.4267 23.6995 36.4382 25.4867 31.7539 25.9281C31.7539 25.9281 32.2682 22.2638 32.9325 18.7281L29.1482 17.7124C27.4077 17.247 25.5888 17.1527 23.8094 17.4355C22.0301 17.7182 20.3301 18.3718 18.8196 19.3538L18.6396 19.4652L20.8767 15.8481C22.3297 13.4966 24.5018 11.676 27.0709 10.6562C29.6401 9.63642 32.4695 9.47177 35.1396 10.1867L35.2382 10.2167ZM10.6167 40.3709C8.30529 40.1813 5.99771 39.9469 3.69531 39.6681C5.34103 35.2538 8.3496 30.8995 13.5653 28.1738C14.069 27.9095 14.6293 27.7714 15.1982 27.7714C15.767 27.7714 16.3273 27.9095 16.831 28.1738C22.0467 30.8995 25.0553 35.2538 26.701 39.6681C26.701 39.6681 23.0282 40.1224 19.441 40.3966V44.3095C19.4409 46.1118 19.8197 47.894 20.5529 49.5405C21.286 51.187 22.3571 52.6609 23.6967 53.8667L23.851 54.0081L19.7796 52.7867C17.1308 51.992 14.8087 50.3645 13.1581 48.1457C11.5075 45.9269 10.6163 43.235 10.6167 40.4695V40.3709ZM50.8896 46.7009C52.861 49.5724 54.6953 52.5209 54.6953 52.5209C50.2296 54.0124 44.9496 54.4109 39.5496 52.0709C39.0277 51.8456 38.5683 51.497 38.2108 51.0551C37.8532 50.6132 37.6082 50.0912 37.4967 49.5338C36.3396 43.7652 37.8353 38.6866 40.231 34.6281C40.231 34.6281 42.8882 37.1995 45.361 39.8224L48.4039 37.3581C49.8061 36.2247 50.9542 34.8092 51.7738 33.2033C52.5933 31.5974 53.066 29.8371 53.161 28.0366L53.1739 27.8267L54.7853 31.7695C55.8316 34.3278 56.0255 37.1551 55.3385 39.8323C54.6514 42.5095 53.1199 44.8941 50.971 46.6324L50.8896 46.7009Z" stroke="#28406D" stroke-width="2.5" stroke-linecap="round" stroke-linejoin="round"/>
</svg>
