<svg width="228" height="49" viewBox="0 0 228 49" fill="none" xmlns="http://www.w3.org/2000/svg">
<path d="M14.6328 7.55273H0.00390625V-0.000976562H37.5332V7.55273H22.7676V48.7734H14.6328V7.55273ZM44.1641 -0.000976562H63.5098C64.5579 -0.000976562 65.6175 0.078776 66.6885 0.238281C67.7594 0.397786 68.7848 0.705404 69.7646 1.16113C70.7445 1.59408 71.6559 2.18652 72.499 2.93848C73.3421 3.69043 74.0827 4.65885 74.7207 5.84375C75.3587 7.00586 75.8486 8.41862 76.1904 10.082C76.555 11.7454 76.7373 13.6937 76.7373 15.9268C76.7373 18.1598 76.5436 20.1081 76.1562 21.7715C75.7689 23.4121 75.2448 24.8135 74.584 25.9756C73.9232 27.1377 73.1484 28.0833 72.2598 28.8125C71.3711 29.5417 70.4255 30.1227 69.4229 30.5557C68.4202 30.9658 67.3835 31.2507 66.3125 31.4102C65.2643 31.5469 64.2275 31.6152 63.2021 31.6152H52.3672V48.7734H44.1641V-0.000976562ZM62.2451 23.9932C63.4756 23.9932 64.4668 23.7881 65.2188 23.3779C65.9935 22.9678 66.5973 22.3981 67.0303 21.6689C67.486 20.9398 67.7936 20.0853 67.9531 19.1055C68.1126 18.1257 68.1924 17.0661 68.1924 15.9268C68.1924 14.8102 68.1126 13.7507 67.9531 12.748C67.7936 11.7454 67.486 10.8682 67.0303 10.1162C66.5973 9.34147 65.9935 8.73763 65.2188 8.30469C64.4668 7.84896 63.4756 7.62109 62.2451 7.62109H52.3672V23.9932H62.2451ZM81.5566 24.7793H104.594V32.5381H81.5566V24.7793ZM112.865 -0.000976562H121.068V41.1514H141.234V48.7734H112.865V-0.000976562ZM159.042 -0.000976562H169.911L185.873 48.7734H176.815L172.714 35.5459H156.103L152.172 48.7734H143.217L159.042 -0.000976562ZM170.458 28.1973L164.442 7.55273H164.306L158.29 28.1973H170.458ZM192.572 -0.000976562H211.679C214.071 -0.000976562 216.111 0.272461 217.797 0.819336C219.483 1.34342 220.862 2.16374 221.933 3.28027C223.026 4.37402 223.824 5.764 224.325 7.4502C224.826 9.11361 225.077 11.0846 225.077 13.3633C225.077 15.3001 224.872 16.8724 224.462 18.0801C224.075 19.2878 223.585 20.2448 222.992 20.9512C222.4 21.6576 221.739 22.1702 221.01 22.4893C220.281 22.7855 219.597 23.002 218.959 23.1387V23.207C219.369 23.2526 219.859 23.3551 220.429 23.5146C220.998 23.6514 221.591 23.8792 222.206 24.1982C222.821 24.4945 223.425 24.9046 224.018 25.4287C224.61 25.93 225.146 26.5794 225.624 27.377C226.103 28.1745 226.49 29.1429 226.786 30.2822C227.082 31.3988 227.23 32.709 227.23 34.2129C227.23 37.2207 226.934 39.6702 226.342 41.5615C225.749 43.4528 224.849 44.9339 223.642 46.0049C222.457 47.0758 220.941 47.805 219.096 48.1924C217.273 48.5798 215.131 48.7734 212.67 48.7734H192.572V-0.000976562ZM210.072 20.5752C211.303 20.5752 212.351 20.4954 213.217 20.3359C214.083 20.1764 214.789 19.8574 215.336 19.3789C215.906 18.8776 216.316 18.1826 216.566 17.2939C216.817 16.4053 216.942 15.2318 216.942 13.7734C216.942 12.5658 216.794 11.5632 216.498 10.7656C216.202 9.94531 215.769 9.2959 215.199 8.81738C214.63 8.33887 213.923 7.99707 213.08 7.79199C212.26 7.58691 211.326 7.48438 210.277 7.48438H200.775V20.5752H210.072ZM211.679 41.2881C212.727 41.2881 213.673 41.2083 214.516 41.0488C215.382 40.8665 216.111 40.5247 216.703 40.0234C217.318 39.5221 217.785 38.8271 218.104 37.9385C218.446 37.027 218.617 35.8307 218.617 34.3496C218.617 32.8685 218.469 31.6836 218.173 30.7949C217.899 29.8835 217.455 29.1885 216.84 28.71C216.247 28.2314 215.484 27.9238 214.55 27.7871C213.638 27.6276 212.545 27.5479 211.269 27.5479H200.775V41.2881H211.679Z" fill="white"/>
</svg>
