<svg width="207" height="35" viewBox="0 0 207 35" fill="none" xmlns="http://www.w3.org/2000/svg">
<path d="M10.4492 5.39648H0V0.000976562H26.8066V5.39648H16.2598V34.8398H10.4492V5.39648ZM31.543 0.000976562H45.3613C46.11 0.000976562 46.8669 0.0579427 47.6318 0.171875C48.3968 0.285807 49.1292 0.505534 49.8291 0.831055C50.529 1.1403 51.18 1.56348 51.7822 2.10059C52.3844 2.6377 52.9134 3.32943 53.3691 4.17578C53.8249 5.00586 54.1748 6.01497 54.4189 7.20312C54.6794 8.39128 54.8096 9.78288 54.8096 11.3779C54.8096 12.973 54.6712 14.3646 54.3945 15.5527C54.1178 16.7246 53.7435 17.7256 53.2715 18.5557C52.7995 19.3857 52.2461 20.0612 51.6113 20.582C50.9766 21.1029 50.3011 21.5179 49.585 21.8271C48.8688 22.1201 48.1283 22.3236 47.3633 22.4375C46.6146 22.5352 45.874 22.584 45.1416 22.584H37.4023V34.8398H31.543V0.000976562ZM44.458 17.1396C45.3369 17.1396 46.0449 16.9932 46.582 16.7002C47.1354 16.4072 47.5667 16.0003 47.876 15.4795C48.2015 14.9587 48.4212 14.3483 48.5352 13.6484C48.6491 12.9486 48.7061 12.1917 48.7061 11.3779C48.7061 10.5804 48.6491 9.82357 48.5352 9.10742C48.4212 8.39128 48.2015 7.76465 47.876 7.22754C47.5667 6.67415 47.1354 6.24284 46.582 5.93359C46.0449 5.60807 45.3369 5.44531 44.458 5.44531H37.4023V17.1396H44.458ZM58.252 17.7012H74.707V23.2432H58.252V17.7012ZM80.6152 0.000976562H86.4746V29.3955H100.879V34.8398H80.6152V0.000976562ZM113.599 0.000976562H121.362L132.764 34.8398H126.294L123.364 25.3916H111.499L108.691 34.8398H102.295L113.599 0.000976562ZM121.753 20.1426L117.456 5.39648H117.358L113.062 20.1426H121.753ZM137.549 0.000976562H151.196C152.905 0.000976562 154.362 0.196289 155.566 0.586914C156.771 0.961263 157.756 1.5472 158.521 2.34473C159.302 3.12598 159.871 4.11882 160.229 5.32324C160.588 6.51139 160.767 7.91927 160.767 9.54688C160.767 10.9303 160.62 12.0534 160.327 12.916C160.05 13.7786 159.701 14.4622 159.277 14.9668C158.854 15.4714 158.382 15.8376 157.861 16.0654C157.34 16.277 156.852 16.4316 156.396 16.5293V16.5781C156.689 16.6107 157.039 16.6839 157.446 16.7979C157.853 16.8955 158.276 17.0583 158.716 17.2861C159.155 17.4977 159.587 17.7907 160.01 18.165C160.433 18.5231 160.815 18.987 161.157 19.5566C161.499 20.1263 161.776 20.818 161.987 21.6318C162.199 22.4294 162.305 23.3652 162.305 24.4395C162.305 26.5879 162.093 28.3376 161.67 29.6885C161.247 31.0394 160.604 32.0973 159.741 32.8623C158.895 33.6273 157.812 34.1481 156.494 34.4248C155.192 34.7015 153.662 34.8398 151.904 34.8398H137.549V0.000976562ZM150.049 14.6982C150.928 14.6982 151.676 14.6413 152.295 14.5273C152.913 14.4134 153.418 14.1855 153.809 13.8438C154.215 13.4857 154.508 12.9893 154.688 12.3545C154.867 11.7197 154.956 10.8815 154.956 9.83984C154.956 8.97721 154.85 8.26107 154.639 7.69141C154.427 7.10547 154.118 6.6416 153.711 6.2998C153.304 5.95801 152.799 5.71387 152.197 5.56738C151.611 5.4209 150.944 5.34766 150.195 5.34766H143.408V14.6982H150.049ZM151.196 29.4932C151.945 29.4932 152.62 29.4362 153.223 29.3223C153.841 29.1921 154.362 28.9479 154.785 28.5898C155.225 28.2318 155.558 27.7354 155.786 27.1006C156.03 26.4495 156.152 25.5951 156.152 24.5371C156.152 23.4792 156.047 22.6328 155.835 21.998C155.64 21.347 155.322 20.8506 154.883 20.5088C154.46 20.167 153.914 19.9473 153.247 19.8496C152.596 19.7357 151.815 19.6787 150.903 19.6787H143.408V29.4932H151.196ZM188.013 0.000976562H195.142L196.924 8.22852H197.217C197.249 7.93555 197.29 7.61816 197.339 7.27637C197.371 6.9834 197.42 6.6416 197.485 6.25098C197.55 5.86035 197.64 5.45345 197.754 5.03027L198.95 0.000976562H206.152V15.8945H201.953V3.44336H201.66C201.644 3.57357 201.619 3.72819 201.587 3.90723C201.538 4.21647 201.44 4.64779 201.294 5.20117L199.658 11.5977H194.507L192.847 5.44531C192.782 5.25 192.733 5.05469 192.7 4.85938C192.668 4.64779 192.635 4.46061 192.603 4.29785C192.57 4.11882 192.537 3.93164 192.505 3.73633H192.212V15.8945H188.013V0.000976562ZM175.391 4.07812H169.824V0.000976562H185.278V4.07812H179.688V15.8945H175.391V4.07812Z" fill="#28406D"/>
</svg>
