<svg width="289" height="49" viewBox="0 0 289 49" fill="none" xmlns="http://www.w3.org/2000/svg">
<path d="M14.6289 7.55273H0V-0.000976562H37.5293V7.55273H22.7637V48.7734H14.6289V7.55273ZM44.1602 -0.000976562H63.5059C64.554 -0.000976562 65.6136 0.078776 66.6846 0.238281C67.7555 0.397786 68.7809 0.705404 69.7607 1.16113C70.7406 1.59408 71.652 2.18652 72.4951 2.93848C73.3382 3.69043 74.0788 4.65885 74.7168 5.84375C75.3548 7.00586 75.8447 8.41862 76.1865 10.082C76.5511 11.7454 76.7334 13.6937 76.7334 15.9268C76.7334 18.1598 76.5397 20.1081 76.1523 21.7715C75.765 23.4121 75.2409 24.8135 74.5801 25.9756C73.9193 27.1377 73.1445 28.0833 72.2559 28.8125C71.3672 29.5417 70.4215 30.1227 69.4189 30.5557C68.4163 30.9658 67.3796 31.2507 66.3086 31.4102C65.2604 31.5469 64.2236 31.6152 63.1982 31.6152H52.3633V48.7734H44.1602V-0.000976562ZM62.2412 23.9932C63.4717 23.9932 64.4629 23.7881 65.2148 23.3779C65.9896 22.9678 66.5934 22.3981 67.0264 21.6689C67.4821 20.9398 67.7897 20.0853 67.9492 19.1055C68.1087 18.1257 68.1885 17.0661 68.1885 15.9268C68.1885 14.8102 68.1087 13.7507 67.9492 12.748C67.7897 11.7454 67.4821 10.8682 67.0264 10.1162C66.5934 9.34147 65.9896 8.73763 65.2148 8.30469C64.4629 7.84896 63.4717 7.62109 62.2412 7.62109H52.3633V23.9932H62.2412ZM81.5527 24.7793H104.59V32.5381H81.5527V24.7793ZM112.861 -0.000976562H121.064V41.1514H141.23V48.7734H112.861V-0.000976562ZM159.038 -0.000976562H169.907L185.869 48.7734H176.812L172.71 35.5459H156.099L152.168 48.7734H143.213L159.038 -0.000976562ZM170.454 28.1973L164.438 7.55273H164.302L158.286 28.1973H170.454ZM192.568 -0.000976562H211.675C214.067 -0.000976562 216.107 0.272461 217.793 0.819336C219.479 1.34342 220.858 2.16374 221.929 3.28027C223.022 4.37402 223.82 5.764 224.321 7.4502C224.823 9.11361 225.073 11.0846 225.073 13.3633C225.073 15.3001 224.868 16.8724 224.458 18.0801C224.071 19.2878 223.581 20.2448 222.988 20.9512C222.396 21.6576 221.735 22.1702 221.006 22.4893C220.277 22.7855 219.593 23.002 218.955 23.1387V23.207C219.365 23.2526 219.855 23.3551 220.425 23.5146C220.994 23.6514 221.587 23.8792 222.202 24.1982C222.817 24.4945 223.421 24.9046 224.014 25.4287C224.606 25.93 225.142 26.5794 225.62 27.377C226.099 28.1745 226.486 29.1429 226.782 30.2822C227.078 31.3988 227.227 32.709 227.227 34.2129C227.227 37.2207 226.93 39.6702 226.338 41.5615C225.745 43.4528 224.845 44.9339 223.638 46.0049C222.453 47.0758 220.938 47.805 219.092 48.1924C217.269 48.5798 215.127 48.7734 212.666 48.7734H192.568V-0.000976562ZM210.068 20.5752C211.299 20.5752 212.347 20.4954 213.213 20.3359C214.079 20.1764 214.785 19.8574 215.332 19.3789C215.902 18.8776 216.312 18.1826 216.562 17.2939C216.813 16.4053 216.938 15.2318 216.938 13.7734C216.938 12.5658 216.79 11.5632 216.494 10.7656C216.198 9.94531 215.765 9.2959 215.195 8.81738C214.626 8.33887 213.919 7.99707 213.076 7.79199C212.256 7.58691 211.322 7.48438 210.273 7.48438H200.771V20.5752H210.068ZM211.675 41.2881C212.723 41.2881 213.669 41.2083 214.512 41.0488C215.378 40.8665 216.107 40.5247 216.699 40.0234C217.314 39.5221 217.782 38.8271 218.101 37.9385C218.442 37.027 218.613 35.8307 218.613 34.3496C218.613 32.8685 218.465 31.6836 218.169 30.7949C217.896 29.8835 217.451 29.1885 216.836 28.71C216.243 28.2314 215.48 27.9238 214.546 27.7871C213.634 27.6276 212.541 27.5479 211.265 27.5479H200.771V41.2881H211.675ZM263.218 -0.000976562H273.198L275.693 11.5176H276.104C276.149 11.1074 276.206 10.6631 276.274 10.1846C276.32 9.77441 276.388 9.2959 276.479 8.74902C276.571 8.20215 276.696 7.63249 276.855 7.04004L278.53 -0.000976562H288.613V22.25H282.734V4.81836H282.324C282.301 5.00065 282.267 5.21712 282.222 5.46777C282.153 5.90072 282.017 6.50456 281.812 7.2793L279.521 16.2344H272.31L269.985 7.62109C269.894 7.34766 269.826 7.07422 269.78 6.80078C269.735 6.50456 269.689 6.24251 269.644 6.01465C269.598 5.764 269.552 5.50195 269.507 5.22852H269.097V22.25H263.218V-0.000976562ZM245.547 5.70703H237.754V-0.000976562H259.39V5.70703H251.562V22.25H245.547V5.70703Z" fill="white"/>
</svg>
