<svg width="163" height="35" viewBox="0 0 163 35" fill="none" xmlns="http://www.w3.org/2000/svg">
<path d="M10.4453 5.39648H-0.00390625V0.000976562H26.8027V5.39648H16.2559V34.8398H10.4453V5.39648ZM31.5391 0.000976562H45.3574C46.1061 0.000976562 46.863 0.0579427 47.6279 0.171875C48.3929 0.285807 49.1253 0.505534 49.8252 0.831055C50.5251 1.1403 51.1761 1.56348 51.7783 2.10059C52.3805 2.6377 52.9095 3.32943 53.3652 4.17578C53.821 5.00586 54.1709 6.01497 54.415 7.20312C54.6755 8.39128 54.8057 9.78288 54.8057 11.3779C54.8057 12.973 54.6673 14.3646 54.3906 15.5527C54.1139 16.7246 53.7396 17.7256 53.2676 18.5557C52.7956 19.3857 52.2422 20.0612 51.6074 20.582C50.9727 21.1029 50.2972 21.5179 49.5811 21.8271C48.8649 22.1201 48.1243 22.3236 47.3594 22.4375C46.6107 22.5352 45.8701 22.584 45.1377 22.584H37.3984V34.8398H31.5391V0.000976562ZM44.4541 17.1396C45.333 17.1396 46.041 16.9932 46.5781 16.7002C47.1315 16.4072 47.5628 16.0003 47.8721 15.4795C48.1976 14.9587 48.4173 14.3483 48.5312 13.6484C48.6452 12.9486 48.7021 12.1917 48.7021 11.3779C48.7021 10.5804 48.6452 9.82357 48.5312 9.10742C48.4173 8.39128 48.1976 7.76465 47.8721 7.22754C47.5628 6.67415 47.1315 6.24284 46.5781 5.93359C46.041 5.60807 45.333 5.44531 44.4541 5.44531H37.3984V17.1396H44.4541ZM58.248 17.7012H74.7031V23.2432H58.248V17.7012ZM80.6113 0.000976562H86.4707V29.3955H100.875V34.8398H80.6113V0.000976562ZM113.595 0.000976562H121.358L132.76 34.8398H126.29L123.36 25.3916H111.495L108.688 34.8398H102.291L113.595 0.000976562ZM121.749 20.1426L117.452 5.39648H117.354L113.058 20.1426H121.749ZM137.545 0.000976562H151.192C152.901 0.000976562 154.358 0.196289 155.562 0.586914C156.767 0.961263 157.752 1.5472 158.517 2.34473C159.298 3.12598 159.868 4.11882 160.226 5.32324C160.584 6.51139 160.763 7.91927 160.763 9.54688C160.763 10.9303 160.616 12.0534 160.323 12.916C160.047 13.7786 159.697 14.4622 159.273 14.9668C158.85 15.4714 158.378 15.8376 157.857 16.0654C157.337 16.277 156.848 16.4316 156.393 16.5293V16.5781C156.686 16.6107 157.035 16.6839 157.442 16.7979C157.849 16.8955 158.272 17.0583 158.712 17.2861C159.151 17.4977 159.583 17.7907 160.006 18.165C160.429 18.5231 160.812 18.987 161.153 19.5566C161.495 20.1263 161.772 20.818 161.983 21.6318C162.195 22.4294 162.301 23.3652 162.301 24.4395C162.301 26.5879 162.089 28.3376 161.666 29.6885C161.243 31.0394 160.6 32.0973 159.737 32.8623C158.891 33.6273 157.809 34.1481 156.49 34.4248C155.188 34.7015 153.658 34.8398 151.9 34.8398H137.545V0.000976562ZM150.045 14.6982C150.924 14.6982 151.673 14.6413 152.291 14.5273C152.91 14.4134 153.414 14.1855 153.805 13.8438C154.212 13.4857 154.505 12.9893 154.684 12.3545C154.863 11.7197 154.952 10.8815 154.952 9.83984C154.952 8.97721 154.846 8.26107 154.635 7.69141C154.423 7.10547 154.114 6.6416 153.707 6.2998C153.3 5.95801 152.796 5.71387 152.193 5.56738C151.607 5.4209 150.94 5.34766 150.191 5.34766H143.404V14.6982H150.045ZM151.192 29.4932C151.941 29.4932 152.617 29.4362 153.219 29.3223C153.837 29.1921 154.358 28.9479 154.781 28.5898C155.221 28.2318 155.554 27.7354 155.782 27.1006C156.026 26.4495 156.148 25.5951 156.148 24.5371C156.148 23.4792 156.043 22.6328 155.831 21.998C155.636 21.347 155.318 20.8506 154.879 20.5088C154.456 20.167 153.91 19.9473 153.243 19.8496C152.592 19.7357 151.811 19.6787 150.899 19.6787H143.404V29.4932H151.192Z" fill="#28406D"/>
</svg>
