<svg width="60" height="60" viewBox="0 0 60 60" fill="none" xmlns="http://www.w3.org/2000/svg">
<path d="M16.1429 30H34M16.1429 37.1429H41.1429M16.1429 44.2857H26.8571M51.8571 47.8571V22.8571L34 5H16.1429C14.2485 5 12.4316 5.75255 11.0921 7.09209C9.75255 8.43164 9 10.2485 9 12.1429V47.8571C9 49.7515 9.75255 51.5684 11.0921 52.9079C12.4316 54.2474 14.2485 55 16.1429 55H44.7143C46.6087 55 48.4255 54.2474 49.765 52.9079C51.1046 51.5684 51.8571 49.7515 51.8571 47.8571Z" stroke="white" stroke-width="2.5" stroke-linecap="round" stroke-linejoin="round"/>
<path d="M34 5V15.7143C34 17.6087 34.7526 19.4255 36.0921 20.765C37.4316 22.1046 39.2485 22.8571 41.1429 22.8571H51.8571" stroke="white" stroke-width="2.5" stroke-linecap="round" stroke-linejoin="round"/>
</svg>
