<svg width="60" height="60" viewBox="0 0 60 60" fill="none" xmlns="http://www.w3.org/2000/svg">
<g clip-path="url(#clip0_2163_8425)">
<path d="M58.125 28.125C58.125 26.6476 57.834 25.1847 57.2686 23.8198C56.7033 22.4549 55.8746 21.2147 54.83 20.17C53.7853 19.1254 52.5451 18.2967 51.1802 17.7314C49.8153 17.166 48.3524 16.875 46.875 16.875C45.3976 16.875 43.9347 17.166 42.5698 17.7314C41.2049 18.2967 39.9647 19.1254 38.92 20.17C37.8754 21.2147 37.0467 22.4549 36.4814 23.8198C35.916 25.1847 35.625 26.6476 35.625 28.125H58.125ZM58.125 28.125H26.845M7.5 9.375C7.5 11.3641 8.29018 13.2718 9.6967 14.6783C11.1032 16.0848 13.0109 16.875 15 16.875C16.9891 16.875 18.8968 16.0848 20.3033 14.6783C21.7098 13.2718 22.5 11.3641 22.5 9.375C22.5 7.38588 21.7098 5.47822 20.3033 4.0717C18.8968 2.66518 16.9891 1.875 15 1.875C13.0109 1.875 11.1032 2.66518 9.6967 4.0717C8.29018 5.47822 7.5 7.38588 7.5 9.375ZM28.125 33.75C28.125 30.269 26.7422 26.9306 24.2808 24.4692C21.8194 22.0078 18.481 20.625 15 20.625C11.519 20.625 8.18064 22.0078 5.71922 24.4692C3.25781 26.9306 1.875 30.269 1.875 33.75V39.375H7.5L9.375 58.125H20.625L22.5 39.375H28.125V33.75ZM40.3125 8.4375C40.3125 10.178 41.0039 11.8472 42.2346 13.0779C43.4653 14.3086 45.1345 15 46.875 15C48.6155 15 50.2847 14.3086 51.5154 13.0779C52.7461 11.8472 53.4375 10.178 53.4375 8.4375C53.4375 6.69702 52.7461 5.02782 51.5154 3.79711C50.2847 2.5664 48.6155 1.875 46.875 1.875C45.1345 1.875 43.4653 2.5664 42.2346 3.79711C41.0039 5.02782 40.3125 6.69702 40.3125 8.4375Z" stroke="white" stroke-width="2.5" stroke-linecap="round" stroke-linejoin="round"/>
</g>
<defs>
<clipPath id="clip0_2163_8425">
<rect width="60" height="60" fill="white"/>
</clipPath>
</defs>
</svg>
