<svg width="60" height="60" viewBox="0 0 60 60" fill="none" xmlns="http://www.w3.org/2000/svg">
<path d="M53.5532 52.3841L40.0548 38.7534C42.9454 35.2879 44.6852 30.8191 44.6852 25.9391C44.6852 14.9269 35.838 6 24.8662 6C13.8945 6 5 14.9268 5 25.9383C5 36.9497 13.8946 45.8766 24.8662 45.8766C29.8744 45.8766 34.4369 44.0117 37.9196 40.9429L51.3943 54.5514C51.9903 55.1495 52.9571 55.1495 53.5524 54.5514C54.1491 53.9525 54.1491 52.9829 53.5531 52.384L53.5532 52.3841ZM24.8405 42.7612C15.6094 42.7612 8.0525 35.1769 8.0525 25.9123C8.0525 16.6478 15.6094 9.06352 24.8405 9.06352C34.0716 9.06352 41.6285 16.6478 41.6285 25.9123C41.6285 35.1769 34.0716 42.7612 24.8405 42.7612ZM32.4714 24.3806H26.3667V18.2538C26.3667 17.4083 25.6829 16.7221 24.8405 16.7221C23.998 16.7221 23.3143 17.4083 23.3143 18.2538V24.3806H17.2096C16.3671 24.3806 15.6834 25.0668 15.6834 25.9123C15.6834 26.7578 16.3671 27.444 17.2096 27.444H23.3143V33.5709C23.3143 34.4164 23.998 35.1026 24.8405 35.1026C25.6829 35.1026 26.3667 34.4164 26.3667 33.5709V27.444H32.4714C33.3138 27.444 33.9976 26.7578 33.9976 25.9123C33.9976 25.0668 33.3146 24.3806 32.4714 24.3806Z" fill="white"/>
</svg>
