<svg width="60" height="60" viewBox="0 0 60 60" fill="none" xmlns="http://www.w3.org/2000/svg">
<path d="M29.5 5C28.4683 4.99954 27.4503 5.23718 26.5246 5.69457C25.599 6.15195 24.7904 6.81682 24.1615 7.63783C23.5326 8.45884 23.1 9.414 22.8974 10.4295C22.6947 11.445 22.7273 12.4937 22.9927 13.4946C21.2858 14.3405 20.1523 15.3784 19.2423 16.2081C18.9695 16.4622 18.711 16.691 18.4669 16.8946C17.8854 17.3811 17.3092 17.7676 16.5635 18.0432C15.8096 18.3216 14.8054 18.5135 13.3462 18.5135C12.9891 18.5135 12.6467 18.6559 12.3943 18.9093C12.1418 19.1627 12 19.5065 12 19.8649C12 20.2233 12.1418 20.567 12.3943 20.8204C12.6467 21.0738 12.9891 21.2162 13.3462 21.2162C15.0423 21.2162 16.375 20.9919 17.4923 20.5784C18.6177 20.1622 19.4577 19.5838 20.1846 18.9757C20.5359 18.6827 20.8798 18.3808 21.2158 18.0703C22.0827 17.2811 22.8796 16.5568 24.1908 15.9108C25.1767 17.1811 26.5821 18.0562 28.1538 18.3784V42.8378C28.1538 46.0676 27.5077 48.4459 26.3931 49.9811C25.3269 51.4514 23.7358 52.2973 21.4231 52.2973C21.0661 52.2973 20.7237 52.4397 20.4712 52.6931C20.2187 52.9465 20.0769 53.2902 20.0769 53.6487C20.0769 54.007 20.2187 54.3508 20.4712 54.6042C20.7237 54.8576 21.0661 55 21.4231 55C24.4977 55 26.9423 53.8189 28.5712 51.573C28.8942 51.1261 29.1805 50.645 29.43 50.1297C29.8787 51.0036 30.4262 51.7631 31.0723 52.4081C32.8815 54.2243 35.2642 55 37.5769 55C37.9339 55 38.2763 54.8576 38.5288 54.6042C38.7813 54.3508 38.9231 54.007 38.9231 53.6487C38.9231 53.2902 38.7813 52.9465 38.5288 52.6931C38.2763 52.4397 37.9339 52.2973 37.5769 52.2973C35.8538 52.2973 34.1954 51.7216 32.9758 50.4973C31.7642 49.2811 30.8488 47.2892 30.8488 44.1892V18.3784C32.4186 18.055 33.822 17.1801 34.8065 15.9108C36.1204 16.5568 36.9173 17.2811 37.7869 18.0703C38.11 18.3649 38.4412 18.6649 38.8154 18.9757C39.5423 19.5838 40.3823 20.1649 41.5077 20.5784C42.6277 20.9919 43.9577 21.2162 45.6538 21.2162C46.0109 21.2162 46.3533 21.0738 46.6057 20.8204C46.8582 20.567 47 20.2233 47 19.8649C47 19.5065 46.8582 19.1627 46.6057 18.9093C46.3533 18.6559 46.0109 18.5135 45.6538 18.5135C44.1946 18.5135 43.1904 18.3216 42.4365 18.0432C41.7383 17.7786 41.0934 17.3895 40.5331 16.8946C40.2926 16.691 40.0341 16.4622 39.7577 16.2081C38.8477 15.3757 37.7115 14.3432 36.0073 13.4919C36.1545 12.9369 36.229 12.3586 36.2308 11.7568C36.2308 9.96475 35.5216 8.24615 34.2594 6.97901C32.9971 5.71187 31.2851 5 29.5 5ZM25.4615 11.7568C25.4615 10.6816 25.887 9.65039 26.6444 8.89011C27.4017 8.12983 28.4289 7.7027 29.5 7.7027C30.5711 7.7027 31.5983 8.12983 32.3556 8.89011C33.113 9.65039 33.5385 10.6816 33.5385 11.7568C33.5385 12.832 33.113 13.8631 32.3556 14.6234C31.5983 15.3837 30.5711 15.8108 29.5 15.8108C28.4289 15.8108 27.4017 15.3837 26.6444 14.6234C25.887 13.8631 25.4615 12.832 25.4615 11.7568Z" fill="white"/>
<path d="M4.35 34.9595C3.99196 34.9595 3.64858 35.1004 3.39541 35.3513C3.14223 35.6022 3 35.9425 3 36.2973C3 39.1358 4.13785 41.8581 6.16325 43.8652C8.18864 45.8724 10.9357 47 13.8 47C16.6643 47 19.4114 45.8724 21.4368 43.8652C23.4621 41.8581 24.6 39.1358 24.6 36.2973C24.6 35.9425 24.4578 35.6022 24.2046 35.3513C23.9514 35.1004 23.608 34.9595 23.25 34.9595H21.3924L16.1922 24.4361L16.1598 24.3745C15.9229 23.9527 15.5753 23.6022 15.1537 23.3603C14.7321 23.1183 14.2524 22.9939 13.7653 23.0002C13.2782 23.0065 12.8019 23.1433 12.3868 23.3961C11.9718 23.6489 11.6335 24.0082 11.4078 24.4361L6.2076 34.9595H4.35ZM7.023 37.6351H21.7893C21.4735 39.5088 20.4973 41.2107 19.0345 42.4383C17.5716 43.6659 15.7169 44.3396 13.8 44.3396C11.8831 44.3396 10.0284 43.6659 8.5655 42.4383C7.10265 41.2107 6.12653 39.5088 5.8107 37.6351H7.023ZM18.3873 34.9595H9.2154L13.8 25.6776L18.3873 34.9595ZM35.4 36.2973C35.4 35.9425 35.5422 35.6022 35.7954 35.3513C36.0486 35.1004 36.392 34.9595 36.75 34.9595H38.6076L43.8078 24.4361L43.8402 24.3745C44.0771 23.9527 44.4248 23.6022 44.8463 23.3603C45.2679 23.1183 45.7476 22.9939 46.2347 23.0002C46.7218 23.0065 47.1982 23.1433 47.6132 23.3961C48.0282 23.6489 48.3665 24.0082 48.5922 24.4361L53.7924 34.9595H55.65C56.008 34.9595 56.3514 35.1004 56.6046 35.3513C56.8578 35.6022 57 35.9425 57 36.2973C57 39.1358 55.8621 41.8581 53.8368 43.8652C51.8114 45.8724 49.0643 47 46.2 47C43.3357 47 40.5886 45.8724 38.5632 43.8652C36.5379 41.8581 35.4 39.1358 35.4 36.2973ZM52.923 37.6351H38.2107C38.5265 39.5088 39.5027 41.2107 40.9655 42.4383C42.4283 43.6659 44.2831 44.3396 46.2 44.3396C48.1169 44.3396 49.9717 43.6659 51.4345 42.4383C52.8974 41.2107 53.8735 39.5088 54.1893 37.6351H52.923ZM50.7873 34.9595L46.2 25.6776L41.6154 34.9595H50.7873Z" fill="white"/>
</svg>
