<svg width="60" height="60" viewBox="0 0 60 60" fill="none" xmlns="http://www.w3.org/2000/svg">
<g clip-path="url(#clip0_2133_8077)">
<path d="M16.8759 38.1259H45.0009M26.3759 6.10088C26.843 6.59257 27.4052 6.98409 28.0284 7.25163C28.6516 7.51917 29.3227 7.65714 30.0009 7.65714C30.6791 7.65714 31.3502 7.51917 31.9734 7.25163C32.5965 6.98409 33.1588 6.59257 33.6259 6.10088L35.9759 3.60088C36.6689 2.91138 37.5489 2.44017 38.507 2.24557C39.4651 2.05096 40.4592 2.14148 41.3663 2.50593C42.2735 2.87039 43.0539 3.49279 43.611 4.29614C44.1681 5.09949 44.4775 6.04854 44.5009 7.02588L44.3259 10.5259C44.2951 11.2113 44.4057 11.8958 44.6509 12.5366C44.8961 13.1775 45.2705 13.761 45.7509 14.2509C46.2408 14.7313 46.8243 15.1057 47.4652 15.3509C48.106 15.596 48.7904 15.7067 49.4759 15.6759L52.9759 15.5009C53.9617 15.505 54.9244 15.8005 55.7427 16.3502C56.5611 16.8999 57.1988 17.6792 57.5755 18.5903C57.9522 19.5013 58.0512 20.5034 57.86 21.4705C57.6688 22.4377 57.1959 23.3267 56.5009 24.0259L54.0009 26.3759C53.5092 26.843 53.1177 27.4052 52.8501 28.0284C52.5826 28.6516 52.4446 29.3227 52.4446 30.0009C52.4446 30.6791 52.5826 31.3502 52.8501 31.9734C53.1177 32.5965 53.5092 33.1588 54.0009 33.6259L56.5009 35.9759C57.1959 36.6751 57.6688 37.5641 57.86 38.5312C58.0512 39.4984 57.9522 40.5004 57.5755 41.4115C57.1988 42.3225 56.5611 43.1019 55.7427 43.6516C54.9244 44.2013 53.9617 44.4967 52.9759 44.5009L49.4759 44.3259C48.7939 44.3051 48.115 44.4241 47.4807 44.6756C46.8465 44.927 46.2705 45.3056 45.788 45.788C45.3056 46.2705 44.927 46.8465 44.6756 47.4807C44.4241 48.115 44.3051 48.7939 44.3259 49.4759L44.5009 52.9759C44.4967 53.9617 44.2013 54.9244 43.6516 55.7427C43.1019 56.5611 42.3225 57.1988 41.4115 57.5755C40.5004 57.9522 39.4984 58.0512 38.5312 57.86C37.5641 57.6688 36.6751 57.1959 35.9759 56.5009L33.6259 54.0009C33.1588 53.5092 32.5965 53.1177 31.9734 52.8501C31.3502 52.5826 30.6791 52.4446 30.0009 52.4446C29.3227 52.4446 28.6516 52.5826 28.0284 52.8501C27.4052 53.1177 26.843 53.5092 26.3759 54.0009L24.0259 56.5009C23.3267 57.1959 22.4377 57.6688 21.4705 57.86C20.5034 58.0512 19.5013 57.9522 18.5903 57.5755C17.6792 57.1988 16.8999 56.5611 16.3502 55.7427C15.8005 54.9244 15.505 53.9617 15.5009 52.9759L15.6759 49.4759C15.7067 48.7904 15.596 48.106 15.3509 47.4652C15.1057 46.8243 14.7313 46.2408 14.2509 45.7509C13.761 45.2705 13.1775 44.8961 12.5366 44.6509C11.8958 44.4057 11.2113 44.2951 10.5259 44.3259L7.02588 44.5009C6.04004 44.4967 5.07741 44.2013 4.25902 43.6516C3.44063 43.1019 2.80301 42.3225 2.4263 41.4115C2.04959 40.5004 1.95061 39.4984 2.14181 38.5312C2.33301 37.5641 2.80585 36.6751 3.50088 35.9759L6.00088 33.6259C6.49257 33.1588 6.88409 32.5965 7.15163 31.9734C7.41917 31.3502 7.55714 30.6791 7.55714 30.0009C7.55714 29.3227 7.41917 28.6516 7.15163 28.0284C6.88409 27.4052 6.49257 26.843 6.00088 26.3759L3.50088 24.0259C2.80585 23.3267 2.33301 22.4377 2.14181 21.4705C1.95061 20.5034 2.04959 19.5013 2.4263 18.5903C2.80301 17.6792 3.44063 16.8999 4.25902 16.3502C5.07741 15.8005 6.04004 15.505 7.02588 15.5009L10.5259 15.6759C11.2113 15.7067 11.8958 15.596 12.5366 15.3509C13.1775 15.1057 13.761 14.7313 14.2509 14.2509C14.7313 13.761 15.1057 13.1775 15.3509 12.5366C15.596 11.8958 15.7067 11.2113 15.6759 10.5259L15.5009 7.02588C15.505 6.04004 15.8005 5.07741 16.3502 4.25902C16.8999 3.44063 17.6792 2.80301 18.5903 2.4263C19.5013 2.04959 20.5034 1.95061 21.4705 2.14181C22.4377 2.33301 23.3267 2.80585 24.0259 3.50088L26.3759 6.10088Z" stroke="#28406D" stroke-width="2.5" stroke-linecap="round" stroke-linejoin="round"/>
<path d="M30 38.125V19.375H20V38.125H30ZM30 38.125H40V26.25H30V38.125Z" stroke="#28406D" stroke-width="2.5" stroke-linecap="round" stroke-linejoin="round"/>
</g>
<defs>
<clipPath id="clip0_2133_8077">
<rect width="60" height="60" fill="white"/>
</clipPath>
</defs>
</svg>
