<svg width="60" height="60" viewBox="0 0 60 60" fill="none" xmlns="http://www.w3.org/2000/svg">
<path d="M12.0625 2.5V13.26M24.02 2.5V13.26M35.975 2.5V13.26M47.9325 2.5V13.26M24.02 19.24L16.845 26.415L13.26 22.825M24.02 32.3925L16.845 39.5675L13.26 35.9775M28.8025 24.0225H44.345M28.8025 35.9775H44.345" stroke="#28406D" stroke-width="2.5" stroke-linecap="round" stroke-linejoin="round"/>
<path d="M55.1081 9.6757V43.1507H43.1481C42.5136 43.1507 41.9051 43.4028 41.4564 43.8515C41.0077 44.3001 40.7556 44.9087 40.7556 45.5432V57.5007H7.28313C6.96885 57.501 6.65759 57.4394 6.36717 57.3193C6.07675 57.1991 5.81287 57.0229 5.59064 56.8007C5.36841 56.5785 5.19219 56.3146 5.07207 56.0242C4.95196 55.7337 4.8903 55.4225 4.89063 55.1082V9.6757C4.89063 9.04161 5.14235 8.43344 5.59049 7.98483C6.03863 7.53623 6.64653 7.28387 7.28063 7.2832H52.7156C53.0299 7.28288 53.3412 7.34453 53.6316 7.46465C53.922 7.58477 54.1859 7.76099 54.4081 7.98322C54.6303 8.20545 54.8066 8.46933 54.9267 8.75975C55.0468 9.05016 55.1085 9.36142 55.1081 9.6757Z" stroke="#28406D" stroke-width="2.5" stroke-linecap="round" stroke-linejoin="round"/>
<path d="M55.1053 43.1504L40.7578 57.5004V45.5429C40.7585 44.9088 41.0108 44.3009 41.4594 43.8528C41.908 43.4046 42.5162 43.1529 43.1503 43.1529L55.1053 43.1504Z" stroke="#28406D" stroke-width="2.5" stroke-linecap="round" stroke-linejoin="round"/>
</svg>
