<svg width="60" height="60" viewBox="0 0 60 60" fill="none" xmlns="http://www.w3.org/2000/svg">
<path d="M42 19.425C44.188 19.425 46.2865 20.2902 47.8336 21.8304C49.3808 23.3705 50.25 25.4594 50.25 27.6375V49.5375C50.25 51.7156 49.3808 53.8045 47.8336 55.3446C46.2865 56.8848 44.188 57.75 42 57.75H17.25C15.062 57.75 12.9635 56.8848 11.4164 55.3446C9.86919 53.8045 9 51.7156 9 49.5375V27.6375C9 25.4594 9.86919 23.3705 11.4164 21.8304C12.9635 20.2902 15.062 19.425 17.25 19.425V15.3187C17.25 8.475 22.75 3 29.625 3C36.5 3 42 8.475 42 15.3187V19.425ZM17.25 22.1625C15.7913 22.1625 14.3924 22.7393 13.3609 23.7661C12.3295 24.7929 11.75 26.1854 11.75 27.6375V49.5375C11.75 50.9896 12.3295 52.3821 13.3609 53.4089C14.3924 54.4357 15.7913 55.0125 17.25 55.0125H42C43.4587 55.0125 44.8576 54.4357 45.8891 53.4089C46.9205 52.3821 47.5 50.9896 47.5 49.5375V27.6375C47.5 26.1854 46.9205 24.7929 45.8891 23.7661C44.8576 22.7393 43.4587 22.1625 42 22.1625H17.25ZM39.25 19.425V15.3187C39.25 12.7776 38.2359 10.3406 36.4309 8.54378C34.6259 6.74695 32.1777 5.7375 29.625 5.7375C27.0723 5.7375 24.6241 6.74695 22.8191 8.54378C21.0141 10.3406 20 12.7776 20 15.3187V19.425H39.25ZM29.625 35.85C28.531 35.85 27.4818 36.2826 26.7082 37.0527C25.9346 37.8228 25.5 38.8672 25.5 39.9562C25.5 41.0453 25.9346 42.0897 26.7082 42.8598C27.4818 43.6299 28.531 44.0625 29.625 44.0625C30.719 44.0625 31.7682 43.6299 32.5418 42.8598C33.3154 42.0897 33.75 41.0453 33.75 39.9562C33.75 38.8672 33.3154 37.8228 32.5418 37.0527C31.7682 36.2826 30.719 35.85 29.625 35.85ZM29.625 33.1125C31.4484 33.1125 33.197 33.8335 34.4864 35.117C35.7757 36.4004 36.5 38.1412 36.5 39.9562C36.5 41.7713 35.7757 43.5121 34.4864 44.7955C33.197 46.079 31.4484 46.8 29.625 46.8C27.8016 46.8 26.053 46.079 24.7636 44.7955C23.4743 43.5121 22.75 41.7713 22.75 39.9562C22.75 38.1412 23.4743 36.4004 24.7636 35.117C26.053 33.8335 27.8016 33.1125 29.625 33.1125Z" fill="#28406D"/>
</svg>
