<svg width="60" height="60" viewBox="0 0 60 60" fill="none" xmlns="http://www.w3.org/2000/svg">
<path d="M55.6709 30.0206C55.6709 46.4649 46.4137 55.7135 29.9737 55.7135C13.5337 55.7135 4.28516 46.4649 4.28516 30.0206C4.28516 13.5849 13.5337 4.33203 29.978 4.33203" stroke="white" stroke-width="2.5" stroke-linecap="round" stroke-linejoin="round"/>
<path d="M25.8619 17.0909C19.9004 18.4452 16.6133 22.9537 16.6133 30.0209C16.6133 38.5709 21.4261 43.3794 29.9761 43.3794C37.3861 43.3794 41.989 39.7666 43.0819 33.2309M29.9761 30.0209L38.8776 21.1152M38.8733 21.128L38.3419 19.3966C37.8821 17.9067 37.8375 16.3196 38.2129 14.8062C38.5882 13.2928 39.3692 11.9105 40.4719 10.808L46.9904 4.28516L49.0476 10.9494L55.7119 13.0066L49.189 19.5294C48.0869 20.6313 46.7053 21.4119 45.1928 21.7872C43.6803 22.1625 42.094 22.1183 40.6047 21.6594L38.8733 21.128Z" stroke="white" stroke-width="2.5" stroke-linecap="round" stroke-linejoin="round"/>
</svg>
