<svg width="60" height="60" viewBox="0 0 60 60" fill="none" xmlns="http://www.w3.org/2000/svg">
<path d="M46.8133 25.4465L53.1082 26.4755C53.3575 26.5165 53.584 26.6449 53.7474 26.8376C53.9107 27.0302 54.0003 27.2747 54 27.5273V33.3845C53.9999 33.6351 53.9114 33.8776 53.75 34.0695C53.5887 34.2613 53.3649 34.39 53.118 34.4331L46.8133 35.5405C46.4496 36.8079 45.9498 38.0177 45.3139 39.1697L49.0412 44.3441C49.1898 44.5495 49.2602 44.8012 49.2399 45.0539C49.2195 45.3066 49.1097 45.5437 48.9301 45.7227L44.788 49.8648C44.6111 50.0425 44.3771 50.152 44.1273 50.1741C43.8775 50.1962 43.6279 50.1295 43.4225 49.9857L38.1959 46.3172C37.0385 46.9598 35.8137 47.4725 34.5437 47.846L33.4331 54.1213C33.3892 54.3681 33.2597 54.5916 33.0673 54.7523C32.8749 54.9131 32.6319 55.0008 32.3812 55H26.5273C26.2756 55.0003 26.0319 54.9111 25.8398 54.7483C25.6478 54.5856 25.5198 54.3598 25.4787 54.1115L24.4367 47.8689C23.1615 47.4996 21.9311 46.9902 20.7682 46.3499L15.5807 49.9857C15.3753 50.1295 15.1258 50.1962 14.876 50.1741C14.6262 50.152 14.3922 50.0425 14.2153 49.8648L10.0699 45.7227C9.89381 45.5432 9.78603 45.3078 9.76515 45.0573C9.74427 44.8068 9.81162 44.5568 9.95553 44.3507L13.624 39.222C12.9767 38.0535 12.4618 36.8165 12.0887 35.5339L5.87873 34.4331C5.63243 34.3893 5.40938 34.2603 5.24871 34.0685C5.08803 33.8768 4.99998 33.6346 5 33.3845V27.5273C5 27.0047 5.37567 26.5604 5.8918 26.4755L12.1017 25.4399C12.4785 24.155 12.9903 22.9268 13.6371 21.7551L10.0111 16.5742C9.86809 16.3691 9.80186 16.1202 9.82395 15.8711C9.84605 15.6221 9.95508 15.3887 10.1319 15.212L14.2773 11.0731C14.4555 10.8948 14.6911 10.7854 14.9424 10.7644C15.1936 10.7435 15.4441 10.8124 15.6493 10.9588L20.7943 14.6338C21.9551 13.9979 23.1757 13.497 24.4563 13.1311L25.4755 6.8918C25.5165 6.64255 25.6449 6.41601 25.8376 6.25265C26.0302 6.08929 26.2747 5.99974 26.5273 6H32.3845C32.9039 6 33.3449 6.3724 33.4363 6.882L34.5339 13.154C35.8079 13.522 37.0275 14.0284 38.1926 14.673L43.3474 10.9653C43.5524 10.8163 43.8039 10.7453 44.0565 10.7651C44.3092 10.7848 44.5466 10.8941 44.7259 11.0731L48.8681 15.2153C49.0453 15.3926 49.1542 15.6268 49.1757 15.8766C49.1972 16.1263 49.1299 16.3757 48.9857 16.5807L45.3107 21.8172C45.9422 22.9714 46.4431 24.1801 46.8133 25.4432V25.4465ZM22.0389 30.5C22.0389 32.4779 22.8247 34.3748 24.2233 35.7735C25.6219 37.1721 27.5188 37.9578 29.4967 37.9578C31.4747 37.9578 33.3716 37.1721 34.7702 35.7735C36.1688 34.3748 36.9545 32.4779 36.9545 30.5C36.9545 28.5221 36.1688 26.6251 34.7702 25.2265C33.3716 23.8279 31.4747 23.0422 29.4967 23.0422C27.5188 23.0422 25.6219 23.8279 24.2233 25.2265C22.8247 26.6251 22.0389 28.5221 22.0389 30.5Z" stroke="#28406D" stroke-width="2.5"/>
</svg>
