<svg width="60" height="60" viewBox="0 0 60 60" fill="none" xmlns="http://www.w3.org/2000/svg">
<path d="M54.4026 42.0295L42.2676 29.892C43.3165 26.4989 43.3805 22.8778 42.4521 19.4499C41.5237 16.0219 39.6411 12.928 37.0233 10.528C34.4054 8.12808 31.16 6.52073 27.6644 5.89298C24.1689 5.26522 20.5669 5.64286 17.2776 6.98196L17.2801 8.44446L27.8876 19.052L19.0501 27.8895L8.44261 17.282H6.97761C5.6386 20.5717 5.26124 24.1739 5.88944 27.6697C6.51764 31.1655 8.12556 34.411 10.5261 37.0287C12.9267 39.6464 16.0212 41.5286 19.4497 42.4564C22.8781 43.3842 26.4996 43.3193 29.8926 42.2695L42.0276 54.407M39.3751 39.382L48.2126 48.2195" stroke="#28406D" stroke-width="2.5" stroke-linecap="square"/>
</svg>
