<svg width="60" height="60" viewBox="0 0 60 60" fill="none" xmlns="http://www.w3.org/2000/svg">
<path d="M38.174 53.2166C36.3679 51.363 35.4648 49.117 35.4648 46.4785C35.4648 43.84 36.3679 41.594 38.174 39.7405C39.9802 37.887 42.1663 36.9591 44.7324 36.957C47.2985 36.9549 49.4846 37.8827 51.2908 39.7405C53.0969 41.5982 54 43.8442 54 46.4785C54 49.1128 53.0969 51.3588 51.2908 53.2166C49.4867 55.0722 47.3006 56 44.7324 56C42.1642 56 39.9781 55.0722 38.174 53.2166ZM49.0974 50.9631C50.3063 49.719 50.9108 48.2241 50.9108 46.4785C50.9108 44.7329 50.3063 43.2391 49.0974 41.9971C47.8885 40.755 46.4335 40.133 44.7324 40.1309C43.0313 40.1287 41.5773 40.7508 40.3704 41.9971C39.1636 43.2433 38.5581 44.7371 38.554 46.4785C38.5499 48.2199 39.1554 49.7148 40.3704 50.9631C41.5855 52.2115 43.0395 52.8325 44.7324 52.8262C46.4253 52.8198 47.8803 52.1988 49.0974 50.9631ZM8.70923 43.6951C6.90308 41.8416 6 39.5955 6 36.957C6 34.3185 6.90308 32.0725 8.70923 30.219C10.5133 28.3634 12.6994 27.4355 15.2676 27.4355C17.8358 27.4355 20.0219 28.3634 21.826 30.219C23.6301 32.0746 24.5331 34.3206 24.5352 36.957C24.5373 39.5934 23.6342 41.8394 21.826 43.6951C20.0178 45.5507 17.8316 46.4785 15.2676 46.4785C12.7036 46.4785 10.5174 45.5507 8.70923 43.6951ZM19.6296 41.4417C20.8405 40.1975 21.446 38.7026 21.446 36.957C21.446 35.2114 20.8405 33.7176 19.6296 32.4756C18.4186 31.2336 16.9646 30.6115 15.2676 30.6094C13.5706 30.6073 12.1156 31.2293 10.9026 32.4756C9.68954 33.7218 9.08508 35.2157 9.0892 36.957C9.09332 38.6984 9.69777 40.1933 10.9026 41.4417C12.1073 42.69 13.5624 43.311 15.2676 43.3047C16.9728 43.2983 18.4268 42.6773 19.6296 41.4417ZM20.3524 20.2595C18.5463 18.4018 17.6432 16.1558 17.6432 13.5215C17.6432 10.8872 18.5463 8.6412 20.3524 6.78345C22.1586 4.9257 24.3447 3.99789 26.9108 4C29.4769 4.00212 31.663 4.92994 33.4692 6.78345C35.2753 8.63697 36.1784 10.883 36.1784 13.5215C36.1784 16.16 35.2753 18.406 33.4692 20.2595C31.663 22.113 29.4769 23.0409 26.9108 23.043C24.3447 23.0451 22.1586 22.1173 20.3524 20.2595ZM31.2728 18.0029C32.4837 16.7609 33.0892 15.2671 33.0892 13.5215C33.0892 11.7759 32.4837 10.281 31.2728 9.03687C30.0618 7.79273 28.6078 7.17066 26.9108 7.17066C25.2138 7.17066 23.7588 7.79273 22.5458 9.03687C21.3327 10.281 20.7283 11.7748 20.7324 13.5183C20.7365 15.2618 21.341 16.7567 22.5458 18.0029C23.7505 19.2492 25.2056 19.8702 26.9108 19.866C28.616 19.8617 30.07 19.2407 31.2728 18.0029Z" fill="#28406D"/>
</svg>
