<svg width="60" height="60" viewBox="0 0 60 60" fill="none" xmlns="http://www.w3.org/2000/svg">
<path d="M17.5 17.5H10C9.33696 17.5 8.70107 17.7634 8.23223 18.2322C7.76339 18.7011 7.5 19.337 7.5 20V27.5C7.5 28.163 7.76339 28.7989 8.23223 29.2678C8.70107 29.7366 9.33696 30 10 30H12.5C13.8261 30 15.0979 30.5268 16.0355 31.4645C16.9732 32.4021 17.5 33.6739 17.5 35C17.5 36.3261 16.9732 37.5979 16.0355 38.5355C15.0979 39.4732 13.8261 40 12.5 40H10C9.33696 40 8.70107 40.2634 8.23223 40.7322C7.76339 41.2011 7.5 41.837 7.5 42.5V50C7.5 50.663 7.76339 51.2989 8.23223 51.7678C8.70107 52.2366 9.33696 52.5 10 52.5H17.5C18.163 52.5 18.7989 52.2366 19.2678 51.7678C19.7366 51.2989 20 50.663 20 50V47.5C20 46.1739 20.5268 44.9021 21.4645 43.9645C22.4021 43.0268 23.6739 42.5 25 42.5C26.3261 42.5 27.5979 43.0268 28.5355 43.9645C29.4732 44.9021 30 46.1739 30 47.5V50C30 50.663 30.2634 51.2989 30.7322 51.7678C31.2011 52.2366 31.837 52.5 32.5 52.5H40C40.663 52.5 41.2989 52.2366 41.7678 51.7678C42.2366 51.2989 42.5 50.663 42.5 50V42.5C42.5 41.837 42.7634 41.2011 43.2322 40.7322C43.7011 40.2634 44.337 40 45 40H47.5C48.8261 40 50.0979 39.4732 51.0355 38.5355C51.9732 37.5979 52.5 36.3261 52.5 35C52.5 33.6739 51.9732 32.4021 51.0355 31.4645C50.0979 30.5268 48.8261 30 47.5 30H45C44.337 30 43.7011 29.7366 43.2322 29.2678C42.7634 28.7989 42.5 28.163 42.5 27.5V20C42.5 19.337 42.2366 18.7011 41.7678 18.2322C41.2989 17.7634 40.663 17.5 40 17.5H32.5C31.837 17.5 31.2011 17.2366 30.7322 16.7678C30.2634 16.2989 30 15.663 30 15V12.5C30 11.1739 29.4732 9.90215 28.5355 8.96447C27.5979 8.02678 26.3261 7.5 25 7.5C23.6739 7.5 22.4021 8.02678 21.4645 8.96447C20.5268 9.90215 20 11.1739 20 12.5V15C20 15.663 19.7366 16.2989 19.2678 16.7678C18.7989 17.2366 18.163 17.5 17.5 17.5Z" stroke="#28406D" stroke-width="2.5" stroke-linecap="round" stroke-linejoin="round"/>
</svg>
