<svg width="60" height="60" viewBox="0 0 60 60" fill="none" xmlns="http://www.w3.org/2000/svg">
<path d="M40 30H57.5M57.5 8.125H48.75C47.25 8.125 46.25 9.125 46.25 10.625V49.375C46.25 50.875 47.25 51.875 48.75 51.875H57.5M34.25 49.375C32 42.875 25.75 38.125 18.5 38.125C11.25 38.125 4.75 42.875 2.5 49.375M18.25 15.625V8.125M4.5 22.875H32M8 25.625C8.25 31.125 12.75 35.625 18.25 35.625C24 35.625 28.5 31.125 28.5 25.375V20.875C28.5 15.125 24 10.625 18.25 10.625C12.75 10.625 8.25 15.125 8 20.625V25.625Z" stroke="#28406D" stroke-width="2.5" stroke-miterlimit="10" stroke-linecap="round" stroke-linejoin="round"/>
</svg>
