<svg width="60" height="60" viewBox="0 0 60 60" fill="none" xmlns="http://www.w3.org/2000/svg">
<path d="M29.9975 3.75C25.0413 3.75 21.0475 4.0725 18.3525 4.3825C16.54 4.59125 15.715 6.6275 16.79 8.1025L19.2363 11.4562C19.7354 12.1407 20.0523 12.9407 20.1575 13.7812L21.095 21.2862C21.1405 21.6654 21.0998 22.0499 20.976 22.4111C20.8522 22.7723 20.6485 23.101 20.38 23.3725C12.265 31.5837 7.81003 37.4663 5.60003 40.7375C4.29753 42.6675 3.73003 44.9612 3.86253 47.2862L3.87878 47.5725C4.16003 52.195 7.86503 55.425 12.4863 55.735C16.5288 56.0063 22.2963 56.2488 29.9988 56.2488C37.6988 56.2488 43.4663 56.0063 47.51 55.735C52.13 55.425 55.835 52.195 56.1163 47.5725L56.1338 47.285C56.265 44.96 55.6963 42.6675 54.395 40.7375C52.1863 37.465 47.73 31.5825 39.615 23.3713C39.3466 23.0997 39.1428 22.7711 39.019 22.4099C38.8952 22.0486 38.8546 21.6641 38.9 21.285L39.8375 13.7812C39.9425 12.9403 40.2595 12.1398 40.7588 11.455L43.205 8.10125C44.28 6.62625 43.4563 4.58875 41.6425 4.38125C38.9488 4.0725 34.9538 3.75 29.9975 3.75Z" stroke="#28406D" stroke-width="2.5" stroke-linejoin="round"/>
<path d="M46.2444 42.2016C46.2444 42.2016 44.2806 38.2728 37.0781 31.0703" stroke="#28406D" stroke-width="2.5" stroke-linecap="round" stroke-linejoin="round"/>
</svg>
