<svg width="60" height="60" viewBox="0 0 60 60" fill="none" xmlns="http://www.w3.org/2000/svg">
<path d="M7.88963 27.5C5.65594 30.9169 4.66625 34.9984 5.08681 39.0589C5.50737 43.1194 7.31256 46.9114 10.1991 49.798C13.0857 52.6846 16.8777 54.4898 20.9382 54.9103C24.9987 55.3309 29.0802 54.3412 32.4971 52.1075M34.9971 45C40.3015 45 45.3885 42.8929 49.1393 39.1421C52.89 35.3914 54.9971 30.3043 54.9971 25C54.9971 19.6957 52.89 14.6086 49.1393 10.8579C45.3885 7.10714 40.3015 5 34.9971 5C29.6928 5 24.6057 7.10714 20.855 10.8579C17.1043 14.6086 14.9971 19.6957 14.9971 25C14.9971 30.3043 17.1043 35.3914 20.855 39.1421C24.6057 42.8929 29.6928 45 34.9971 45Z" stroke="#28406D" stroke-width="2.5" stroke-linecap="round"/>
<path d="M39.4225 20.5123C38.8825 18.2323 36.1325 16.1748 32.83 17.7123C29.5275 19.2548 29.0025 24.2073 33.9975 24.7323C36.255 24.9698 37.7275 24.4573 39.0725 25.9098C40.4225 27.3623 40.6725 31.4048 37.2275 32.4948C33.7825 33.5848 30.3725 31.8823 30 29.4648M34.96 15.0098V17.1848M34.96 32.8298V35.0098" stroke="#28406D" stroke-width="2.5" stroke-linecap="round" stroke-linejoin="round"/>
</svg>
