<svg width="60" height="60" viewBox="0 0 60 60" fill="none" xmlns="http://www.w3.org/2000/svg">
<path d="M37.7969 7.76562C38.1194 7.94313 38.436 8.12813 38.7469 8.32063C44.9181 12.1431 49.0444 18.8956 49.1381 26.6081L53.8219 33.1369C54.5256 34.1181 54.4031 35.4444 53.3681 36.0669C52.3306 36.6919 50.7894 37.4219 48.7006 37.9269L47.9931 46.3244C47.9507 46.8274 47.8071 47.3166 47.5711 47.7628C47.335 48.2089 47.0113 48.6028 46.6194 48.9209C46.2274 49.239 45.7753 49.4746 45.2901 49.6138C44.8049 49.7529 44.2966 49.7927 43.7956 49.7306L40.2956 49.2981V53.7506C40.2956 54.4132 40.0326 55.0487 39.5643 55.5175C39.096 55.9863 38.4607 56.25 37.7981 56.2506H16.2644C15.6015 56.2503 14.966 55.9868 14.4974 55.518C14.0288 55.0491 13.7656 54.4135 13.7656 53.7506V44.3756C8.39688 40.3856 4.92188 34.0319 4.92188 26.8756C4.92188 19.0506 9.07313 12.1881 15.3156 8.32063" stroke="#28406D" stroke-width="2.5" stroke-linecap="round" stroke-linejoin="round"/>
<path d="M21.2788 17.5713C19.3662 18.667 17.8693 20.364 17.0208 22.3983C16.1722 24.4325 16.0195 26.6902 16.5865 28.8202C17.1534 30.9502 18.4082 32.8333 20.1558 34.1765C21.9034 35.5198 24.0458 36.2481 26.25 36.2481C28.4542 36.2481 30.5966 35.5198 32.3442 34.1765C34.0918 32.8333 35.3466 30.9502 35.9135 28.8202C36.4805 26.6902 36.3278 24.4325 35.4793 22.3983C34.6307 20.364 33.1338 18.667 31.2213 17.5713C31.2388 16.4721 31.2483 15.1984 31.25 13.75C31.25 10.5613 31.195 8.24377 31.1375 6.69377C31.0838 5.19377 30.07 3.96002 28.575 3.83752C27.8014 3.7783 27.0258 3.74911 26.25 3.75002C25.335 3.75002 24.5625 3.78627 23.925 3.83752C22.43 3.96002 21.4163 5.19377 21.3625 6.69377C21.3038 8.24377 21.25 10.5613 21.25 13.75C21.2508 15.1992 21.2604 16.4729 21.2788 17.5713Z" stroke="#28406D" stroke-width="2.5" stroke-linecap="round" stroke-linejoin="round"/>
<path d="M26.25 36.25C30 40 35.75 42.5 41.25 42.5" stroke="#28406D" stroke-width="2.5" stroke-linecap="round" stroke-linejoin="round"/>
</svg>
