<svg width="60" height="60" viewBox="0 0 60 60" fill="none" xmlns="http://www.w3.org/2000/svg">
<path d="M22.01 11.2754L33.4575 17.8854V31.1029L22.01 37.7104L10.5625 31.1029V17.8854L22.01 11.2754Z" stroke="#28406D" stroke-width="2.5" stroke-linejoin="round"/>
<path d="M33.4944 30.9688L44.9394 37.5762V50.7937L33.4944 57.4038L22.0469 50.7937V37.5762L33.4944 30.9688Z" stroke="#28406D" stroke-width="2.5" stroke-linejoin="round"/>
<path d="M44.9684 11.2754L56.4184 17.8854V31.1029L44.9684 37.7104L33.5234 31.1029V17.8854L44.9684 11.2754Z" stroke="#28406D" stroke-width="2.5" stroke-linejoin="round"/>
<path d="M44.8813 11.3434V2.06836M49.9488 27.3884V20.9934M34.7013 50.4209L28.7962 46.6334M22.4263 29.9559L27.3187 27.1909M22.0762 51.0609L11.0562 57.9359M10.7312 18.0009L2.21875 13.6309M45.4263 50.9509L55.0288 57.1709" stroke="#28406D" stroke-width="2.5" stroke-linecap="round" stroke-linejoin="round"/>
</svg>
