<svg width="60" height="60" viewBox="0 0 60 60" fill="none" xmlns="http://www.w3.org/2000/svg">
<path d="M7.5 56.25H51.6176M41.0609 21.25C43.8112 24.1445 45.3241 27.8692 45.3151 31.7237C45.3151 40.4358 37.7647 47.5 28.4496 47.5C25.4661 47.4959 22.5374 46.7577 19.9636 45.3611C17.3899 43.9645 15.2635 41.9597 13.8025 39.5521M7.5 38.75H26.4076M27.7847 25.8087L23.2563 30M41.562 13.1796L48.3529 6.89417M44.959 3.75L51.75 10.0354M23.2563 47.5V56.25M35.8613 47.5V56.25M38.1649 10.0354L24.583 22.6092L31.3739 28.8946L44.9559 16.3237L38.1649 10.0354Z" stroke="#28406D" stroke-width="2.5" stroke-linecap="round" stroke-linejoin="round"/>
</svg>
