<svg width="60" height="60" viewBox="0 0 60 60" fill="none" xmlns="http://www.w3.org/2000/svg">
<g clip-path="url(#clip0_2347_9655)">
<path d="M10.2998 49.6977C5.07557 44.4735 2.14062 37.3879 2.14062 29.9997C2.14062 22.6115 5.07557 15.526 10.2998 10.3017C15.524 5.07752 22.6096 2.14258 29.9978 2.14258C37.3859 2.14258 44.4715 5.07752 49.6957 10.3017C54.92 15.526 57.8549 22.6115 57.8549 29.9997C57.8549 37.3879 54.92 44.4735 49.6957 49.6977C44.4715 54.9219 37.3859 57.8569 29.9978 57.8569C22.6096 57.8569 15.524 54.9219 10.2998 49.6977Z" stroke="#28406D" stroke-width="2.5" stroke-linecap="round" stroke-linejoin="round"/>
<path d="M10.8359 32.8455C12.0617 32.2498 15.0959 31.5084 17.4145 33.2955C19.7331 35.0826 19.7888 38.2069 19.5274 39.5441C19.2702 40.8812 19.3259 44.0012 21.6445 45.7884C23.9588 47.5755 26.9974 46.8341 28.2231 46.2384M37.8531 27.8569C39.1356 27.8583 40.3949 27.5143 41.4987 26.8612C42.6025 26.2081 43.5101 25.2699 44.1263 24.1451C44.7425 23.0203 45.0445 21.7503 45.0007 20.4685C44.9569 19.1867 44.5688 17.9404 43.8772 16.8603C43.1856 15.7802 42.2161 14.9061 41.0702 14.3299C39.9244 13.7537 38.6446 13.4966 37.3651 13.5856C36.0857 13.6745 34.8538 14.1062 33.7987 14.8354C32.7436 15.5646 31.9043 16.5644 31.3688 17.7298C30.4721 17.2721 29.4645 17.0764 28.4617 17.1651C27.4588 17.2538 26.5013 17.6233 25.6987 18.2312C24.8962 18.8391 24.2813 19.6608 23.9244 20.6022C23.5674 21.5436 23.483 22.5665 23.6807 23.5536C23.8785 24.5408 24.3504 25.4522 25.0424 26.1835C25.7343 26.9148 26.6184 27.4362 27.5931 27.6882C28.5678 27.9401 29.5938 27.9122 30.5535 27.6078C31.5131 27.3033 32.3675 26.7347 33.0188 25.9669C34.3369 27.1853 36.0667 27.8604 37.8616 27.8569M35.3545 38.5712C35.0703 38.5712 34.7978 38.4583 34.5969 38.2574C34.396 38.0565 34.2831 37.7839 34.2831 37.4998C34.2831 37.2156 34.396 36.9431 34.5969 36.7422C34.7978 36.5412 35.0703 36.4284 35.3545 36.4284C35.6387 36.4284 35.9112 36.5412 36.1121 36.7422C36.3131 36.9431 36.4259 37.2156 36.4259 37.4998C36.4259 37.7839 36.3131 38.0565 36.1121 38.2574C35.9112 38.4583 35.6387 38.5712 35.3545 38.5712ZM13.9259 23.5712C13.6418 23.5712 13.3693 23.4583 13.1683 23.2574C12.9674 23.0565 12.8545 22.7839 12.8545 22.4998C12.8545 22.2156 12.9674 21.9431 13.1683 21.7422C13.3693 21.5412 13.6418 21.4284 13.9259 21.4284C14.2101 21.4284 14.4826 21.5412 14.6836 21.7422C14.8845 21.9431 14.9974 22.2156 14.9974 22.4998C14.9974 22.7839 14.8845 23.0565 14.6836 23.2574C14.4826 23.4583 14.2101 23.5712 13.9259 23.5712ZM43.9259 42.8569C43.6418 42.8569 43.3693 42.744 43.1683 42.5431C42.9674 42.3422 42.8545 42.0697 42.8545 41.7855C42.8545 41.5013 42.9674 41.2288 43.1683 41.0279C43.3693 40.827 43.6418 40.7141 43.9259 40.7141C44.2101 40.7141 44.4826 40.827 44.6836 41.0279C44.8845 41.2288 44.9974 41.5013 44.9974 41.7855C44.9974 42.0697 44.8845 42.3422 44.6836 42.5431C44.4826 42.744 44.2101 42.8569 43.9259 42.8569Z" stroke="#28406D" stroke-width="2.5" stroke-linecap="round" stroke-linejoin="round"/>
</g>
<defs>
<clipPath id="clip0_2347_9655">
<rect width="60" height="60" fill="white"/>
</clipPath>
</defs>
</svg>
