<svg width="60" height="60" viewBox="0 0 60 60" fill="none" xmlns="http://www.w3.org/2000/svg">
<g clip-path="url(#clip0_2347_9662)">
<path d="M6.2684 53.7316C3.45535 50.9186 1.875 47.1032 1.875 43.125C1.875 39.1468 3.45535 35.3314 6.2684 32.5184C9.08144 29.7054 12.8968 28.125 16.875 28.125C20.8532 28.125 24.6686 29.7054 27.4816 32.5184C30.2946 35.3314 31.875 39.1468 31.875 43.125C31.875 47.1032 30.2946 50.9186 27.4816 53.7316C24.6686 56.5446 20.8532 58.125 16.875 58.125C12.8968 58.125 9.08144 56.5446 6.2684 53.7316Z" stroke="#28406D" stroke-width="2.5" stroke-linecap="round" stroke-linejoin="round"/>
<path d="M9.375 43.1255C9.375 41.1364 10.1652 39.2288 11.5717 37.8222C12.9782 36.4157 14.8859 35.6255 16.875 35.6255M35.625 20.6255C35.625 23.6099 36.8105 26.472 38.9208 28.5823C41.031 30.6925 43.8932 31.878 46.8775 31.878C49.8618 31.878 52.724 30.6925 54.8342 28.5823C56.9445 26.472 58.13 23.6099 58.13 20.6255C58.13 17.6412 56.9445 14.7791 54.8342 12.6688C52.724 10.5586 49.8618 9.37305 46.8775 9.37305C43.8932 9.37305 41.031 10.5586 38.9208 12.6688C36.8105 14.7791 35.625 17.6412 35.625 20.6255Z" stroke="#28406D" stroke-width="2.5" stroke-linecap="round" stroke-linejoin="round"/>
<path d="M43.125 20.625C43.125 19.6304 43.5201 18.6766 44.2234 17.9733C44.9266 17.2701 45.8804 16.875 46.875 16.875M29.9025 35.685L38.4925 28.125M36.595 16.05L20.3725 9.16M9.375 7.5C9.375 8.99184 9.96763 10.4226 11.0225 11.4775C12.0774 12.5324 13.5082 13.125 15 13.125C16.4918 13.125 17.9226 12.5324 18.9775 11.4775C20.0324 10.4226 20.625 8.99184 20.625 7.5C20.625 6.00816 20.0324 4.57742 18.9775 3.52252C17.9226 2.46763 16.4918 1.875 15 1.875C13.5082 1.875 12.0774 2.46763 11.0225 3.52252C9.96763 4.57742 9.375 6.00816 9.375 7.5Z" stroke="#28406D" stroke-width="2.5" stroke-linecap="round" stroke-linejoin="round"/>
</g>
<defs>
<clipPath id="clip0_2347_9662">
<rect width="60" height="60" fill="white"/>
</clipPath>
</defs>
</svg>
